<svg width="25" height="15" viewBox="0 0 25 15" fill="none" xmlns="http://www.w3.org/2000/svg">
<path d="M23.4375 15H0.9375C0.375 15 0 14.6667 0 14.1667C0 13.6667 0.375 13.3333 0.9375 13.3333H23.4375C24 13.3333 24.375 13.6667 24.375 14.1667C24.375 14.6667 24 15 23.4375 15ZM23.4375 8.33333H0.9375C0.375 8.33333 0 8 0 7.5C0 7 0.375 6.66667 0.9375 6.66667H23.4375C24 6.66667 24.375 7 24.375 7.5C24.375 8 24 8.33333 23.4375 8.33333ZM23.4375 1.66667H0.9375C0.375 1.66667 0 1.33333 0 0.833333C0 0.333333 0.375 0 0.9375 0H23.4375C24 0 24.375 0.333333 24.375 0.833333C24.375 1.33333 24 1.66667 23.4375 1.66667Z" fill="white"/>
</svg>
