<svg width="21" height="21" viewBox="0 0 21 21" fill="none" xmlns="http://www.w3.org/2000/svg">
<path d="M0.29538 1.75187C-0.0984601 1.35813 -0.0984601 0.702815 0.29538 0.295306C0.702991 -0.0984353 1.3447 -0.0984353 1.75231 0.295306L10.4948 9.05031L19.252 0.295306C19.6459 -0.0984353 20.3014 -0.0984353 20.6943 0.295306C21.1019 0.702815 21.1019 1.35905 20.6943 1.75187L11.9518 10.4931L20.6943 19.2481C21.1019 19.6419 21.1019 20.2972 20.6943 20.7047C20.3005 21.0984 19.645 21.0984 19.252 20.7047L10.4948 11.9497L1.75231 20.7047C1.3447 21.0984 0.702991 21.0984 0.29538 20.7047C-0.0984601 20.2972 -0.0984601 19.6409 0.29538 19.2481L9.0379 10.4931L0.29538 1.75187Z" fill="black"/>
</svg>
