<svg width="334" height="38" viewBox="0 0 334 38" fill="none" xmlns="http://www.w3.org/2000/svg">
<g clip-path="url(#clip0_1_7)">
<path d="M85.2104 0H94.0687V33.2732C94.0687 35.1742 92.9882 36.8938 91.3347 37.6189C90.7879 37.8606 90.2104 37.9768 89.6418 37.9768C88.4913 37.9768 87.437 37.354 86.5096 36.5964L56.9688 13.9107V37.9953H48.1105V4.72676C48.1105 2.82583 49.191 1.06898 50.8445 0.343933C52.4981 -0.385763 54.1998 0.232387 55.6696 1.36179L85.2104 24.0846V0ZM138.999 17.7591C137.975 16.6715 136.785 15.8209 135.456 15.2214C134.078 14.6032 132.617 14.3058 131.116 14.3058H107.455C106.19 14.3058 105.162 13.2136 105.162 11.8704C105.162 10.5272 106.19 9.43493 107.455 9.43493H135.499C137.945 9.43493 139.926 7.3295 139.926 4.73141C139.926 2.13332 137.945 0.0232387 135.499 0.0232387H107.455C105.95 0.0232387 104.489 0.339286 103.115 0.957436C101.785 1.55235 100.595 2.40753 99.5718 3.49511C98.5482 4.58268 97.7477 5.84687 97.1833 7.25978C96.6015 8.72383 96.3041 10.2762 96.3041 11.8704C96.3041 13.4645 96.6015 15.0215 97.1833 16.4809C97.7433 17.8938 98.5482 19.158 99.5718 20.2456C100.595 21.3332 101.785 22.1837 103.115 22.7833C104.493 23.4014 105.954 23.7175 107.455 23.7175H131.116V23.7035C132.38 23.7035 133.404 24.7957 133.404 26.1343C133.404 27.4728 132.376 28.5651 131.116 28.5651H100.735C98.2901 28.5651 96.3085 30.6705 96.3085 33.2686C96.3085 35.8667 98.2901 37.9721 100.735 37.9721H131.116C132.621 37.9721 134.078 37.6561 135.456 37.0379C136.785 36.443 137.975 35.5878 138.999 34.5002C140.023 33.4127 140.823 32.1485 141.387 30.7356C141.969 29.2715 142.267 27.7192 142.267 26.125C142.267 24.5308 141.969 22.9785 141.387 21.5144C140.827 20.1015 140.023 18.8373 138.999 17.7498V17.7591ZM46.002 19C46.002 29.4946 37.9967 38 28.1191 38H0V0H28.1191C37.9967 0 46.002 8.50538 46.002 19ZM37.1043 19C37.1043 16.4484 36.1682 14.0548 34.4752 12.2515C32.7779 10.4481 30.5207 9.45817 28.1235 9.45817H8.89768V28.5465H28.1148C30.5163 28.5465 32.7692 27.5519 34.4665 25.7532C36.1638 23.9499 37.0956 21.5516 37.0956 19.0046L37.1043 19Z" fill="#FF7D00"/>
<path d="M160.592 29.4663C159.699 28.7273 158.474 28.3555 156.948 28.3555H155.11V26.278H159.017C159.559 26.278 160.01 26.0688 160.32 25.6877C160.622 25.3345 160.767 24.9255 160.767 24.4328C160.767 23.9401 160.627 23.5265 160.338 23.1593C160.014 22.7828 159.568 22.5923 159.017 22.5923H153.361C152.818 22.5923 152.368 22.7596 152.005 23.0989C151.641 23.4614 151.458 23.9541 151.458 24.5583V36.0196C151.458 36.6053 151.655 37.1119 152.035 37.493C152.403 37.8323 152.853 38.0089 153.378 38.0089H157.289C158.724 38.0089 159.887 37.5859 160.745 36.754C161.642 35.9034 162.096 34.6857 162.096 33.138C162.096 31.5903 161.593 30.3122 160.592 29.4663ZM158.33 33.1008C158.33 33.5284 158.208 33.8584 157.954 34.0862C157.696 34.3279 157.368 34.4487 156.948 34.4487H155.11V31.9203H156.72C158.138 31.9203 158.33 32.5152 158.33 33.1008Z" fill="#FF7D00"/>
<path d="M176.224 22.582C175.713 22.582 175.275 22.754 174.916 23.1072C174.575 23.4698 174.4 23.9624 174.4 24.5759V36.0001C174.4 36.6089 174.575 37.1063 174.93 37.4781C175.28 37.822 175.717 37.994 176.229 37.994C176.741 37.994 177.178 37.8174 177.537 37.4641C177.878 37.1016 178.053 36.6089 178.053 35.9954V24.5713C178.053 23.9624 177.878 23.4651 177.524 23.0933C177.174 22.7494 176.741 22.5774 176.224 22.5774V22.582Z" fill="#FF7D00"/>
<path d="M172.151 29.4012C171.259 28.6251 170.029 28.23 168.498 28.23H166.945V24.6048C166.945 23.9866 166.77 23.4893 166.416 23.1128C166.066 22.7689 165.629 22.5923 165.117 22.5923C164.605 22.5923 164.167 22.7689 163.809 23.1221C163.468 23.4893 163.293 23.9866 163.293 24.6001V36.0336C163.293 36.6145 163.489 37.1165 163.87 37.493C164.237 37.8323 164.688 38.0042 165.213 38.0042H168.839C170.274 38.0042 171.438 37.5673 172.304 36.7121C173.196 35.8244 173.647 34.6021 173.647 33.073C173.647 31.5438 173.144 30.2518 172.151 29.3966V29.4012ZM169.881 33.0404C169.881 33.4773 169.749 33.8259 169.487 34.0955C169.251 34.3464 168.918 34.4766 168.498 34.4766H166.945V31.7669H168.271C168.818 31.7669 169.224 31.8924 169.513 32.1527C169.762 32.3758 169.881 32.6593 169.881 33.0404Z" fill="#FF7D00"/>
<path d="M188.913 23.1547C188.585 22.7735 188.178 22.5923 187.671 22.5923H180.685C180.177 22.5923 179.77 22.7782 179.442 23.1547C179.145 23.4986 178.992 23.9215 178.992 24.4189C178.992 24.9162 179.123 25.3112 179.385 25.6412C179.687 26.0456 180.125 26.2454 180.685 26.2454H182.351V35.9917C182.351 36.6052 182.526 37.1072 182.881 37.4837C183.231 37.8276 183.668 38.0042 184.18 38.0042C184.692 38.0042 185.129 37.8276 185.488 37.4697C185.829 37.1026 186.004 36.6052 186.004 35.9917V26.2454H187.671C188.231 26.2454 188.668 26.0409 188.965 25.6459C189.232 25.3066 189.364 24.9022 189.364 24.4142C189.364 23.9262 189.215 23.4939 188.913 23.15V23.1547Z" fill="#FF7D00"/>
<path d="M196.163 22.5923C194.142 22.5923 192.458 23.3452 191.159 24.8279C189.877 26.2687 189.229 28.1092 189.229 30.3029C189.229 32.4966 189.877 34.3139 191.159 35.7733C192.458 37.2559 194.142 38.0089 196.163 38.0089C198.184 38.0089 199.886 37.2559 201.189 35.7687C202.454 34.3046 203.097 32.4641 203.097 30.2983C203.097 28.1324 202.44 26.3384 201.15 24.8697C199.842 23.3592 198.167 22.5923 196.163 22.5923ZM193.81 27.3795C194.391 26.5615 195.166 26.1618 196.163 26.1618C197.16 26.1618 197.935 26.5615 198.517 27.3795C199.055 28.1417 199.33 29.127 199.33 30.2983C199.33 31.4695 199.063 32.492 198.534 33.2356C197.965 34.0397 197.187 34.4301 196.163 34.4301C195.139 34.4301 194.361 34.0397 193.792 33.2356C193.263 32.492 192.996 31.502 192.996 30.2983C192.996 29.0945 193.272 28.1417 193.81 27.3795Z" fill="#FF7D00"/>
<path d="M212.802 29.4895C213.599 28.8063 214.005 27.8442 214.005 26.6172C214.005 25.3902 213.607 24.4281 212.829 23.6845C212.089 22.9595 211.149 22.5923 210.033 22.5923H206.389C205.847 22.5923 205.396 22.7596 205.033 23.0989C204.67 23.4614 204.487 23.9541 204.487 24.5583V36.0196C204.487 36.6053 204.683 37.1072 205.064 37.493C205.431 37.8323 205.882 38.0089 206.407 38.0089H210.318C211.753 38.0089 212.916 37.5859 213.774 36.754C214.67 35.9034 215.125 34.6857 215.125 33.138C215.125 32.1527 214.81 31.2789 214.185 30.5399C213.787 30.0705 213.327 29.7173 212.802 29.4942V29.4895ZM211.359 33.0916C211.359 33.5191 211.236 33.8491 210.983 34.0769C210.725 34.3232 210.396 34.4394 209.977 34.4394H208.139V31.911H209.749C211.166 31.911 211.359 32.5059 211.359 33.0916ZM208.139 28.3462V26.1478H209.22C209.565 26.1478 209.837 26.2361 210.047 26.4174C210.261 26.6033 210.353 26.831 210.353 27.1657C210.353 27.5607 210.261 27.8349 210.064 28.0348C209.85 28.2486 209.583 28.3462 209.22 28.3462H208.139Z" fill="#FF7D00"/>
<path d="M228.11 35.3829L224.391 24.5304C223.976 23.2616 223.14 22.5923 221.981 22.5923C220.822 22.5923 220.039 23.243 219.571 24.5257L215.734 35.434L215.669 35.6525C215.62 35.8291 215.594 36.0103 215.594 36.187C215.594 36.7168 215.787 37.1723 216.15 37.5023C216.517 37.8369 216.937 38.0042 217.401 38.0042C218.267 38.0042 218.893 37.5209 219.151 36.6517L219.632 35.0901H224.326L224.807 36.6703C225.065 37.5302 225.691 38.0042 226.574 38.0042C227.038 38.0042 227.436 37.8462 227.76 37.5302C228.11 37.1862 228.289 36.7633 228.289 36.2613C228.289 36.1777 228.276 36.0708 228.245 35.9034C228.219 35.7175 228.171 35.5223 228.11 35.3782V35.3829ZM223.215 31.4927H220.712L221.977 27.4352L223.215 31.4927Z" fill="#FF7D00"/>
<path d="M237.638 22.5923H234.296C230.941 22.5923 229.165 24.3259 229.165 27.6026C229.165 28.7877 229.554 29.7777 230.316 30.5492C230.836 31.0698 231.501 31.4509 232.302 31.6879L229.554 34.8252C229.235 35.1923 229.069 35.6013 229.069 36.0103C229.069 36.5262 229.244 36.9957 229.576 37.3768C230.106 37.981 230.827 38.1808 231.632 37.8369C231.829 37.7439 232.113 37.5813 232.306 37.3164L235.845 32.7383V35.9917C235.845 36.6052 236.02 37.1026 236.374 37.479C236.724 37.823 237.162 37.9996 237.673 37.9996C238.185 37.9996 238.623 37.823 238.981 37.4697C239.323 37.1026 239.498 36.6052 239.498 35.9917V24.6048C239.498 23.308 238.837 22.5969 237.634 22.5969L237.638 22.5923ZM233.29 26.6033C233.544 26.3616 233.876 26.2454 234.296 26.2454H235.849V28.9736H234.296C233.872 28.9736 233.548 28.8528 233.299 28.6018C233.054 28.3601 232.932 28.0209 232.932 27.5979C232.932 27.175 233.05 26.8264 233.29 26.6033Z" fill="#FF7D00"/>
<path d="M255.087 22.582H248.101C247.593 22.582 247.186 22.7679 246.858 23.1444C246.561 23.4884 246.408 23.9159 246.408 24.4086C246.408 24.9013 246.539 25.2963 246.801 25.631C247.103 26.0307 247.541 26.2352 248.101 26.2352H249.767V35.9815C249.767 36.595 249.942 37.0923 250.297 37.4734C250.647 37.8174 251.084 37.994 251.596 37.994C252.108 37.994 252.545 37.8174 252.904 37.4595C253.245 37.0923 253.42 36.595 253.42 35.9815V26.2352H255.087C255.647 26.2352 256.084 26.0307 256.382 25.6356C256.648 25.2963 256.78 24.892 256.78 24.404C256.78 23.9159 256.626 23.4837 256.329 23.1398C256.001 22.7587 255.594 22.5774 255.087 22.5774V22.582Z" fill="#FF7D00"/>
<path d="M264.439 34.3232H261.329V32.083H264.041C264.593 32.083 265.043 31.8831 265.38 31.4927C265.682 31.1395 265.826 30.7305 265.826 30.2378C265.826 29.7452 265.677 29.3129 265.376 28.9643C265.056 28.5925 264.593 28.3973 264.037 28.3973H261.325V26.278H264.264C264.816 26.278 265.253 26.0781 265.564 25.6877C265.866 25.3345 266.01 24.9255 266.01 24.4328C266.01 23.9401 265.87 23.5265 265.581 23.1593C265.257 22.7828 264.811 22.5923 264.26 22.5923H259.553C258.337 22.5923 257.672 23.3778 257.672 24.8V36.0382C257.672 36.6145 257.856 37.0933 258.219 37.4558C258.578 37.8183 259.024 37.9996 259.536 37.9996H264.435C264.978 37.9996 265.432 37.7904 265.739 37.4093C266.04 37.0561 266.185 36.6471 266.185 36.1544C266.185 35.6618 266.045 35.2481 265.756 34.8809C265.432 34.5045 264.986 34.3139 264.435 34.3139L264.439 34.3232Z" fill="#FF7D00"/>
<path d="M278.794 34.8902L275.211 29.7916L278.103 25.6319C278.357 25.288 278.492 24.8929 278.492 24.4839C278.492 23.903 278.304 23.4335 277.945 23.1082C277.595 22.7643 277.158 22.5923 276.646 22.5923C276.012 22.5923 275.469 22.913 275.085 23.5172L273.059 26.5615L271.038 23.5218C270.649 22.913 270.106 22.5923 269.472 22.5923C268.96 22.5923 268.523 22.7643 268.182 23.0989C267.814 23.4382 267.626 23.903 267.626 24.4886C267.626 24.8976 267.762 25.2926 268.007 25.6273L270.907 29.8009L267.32 34.9042C267.189 35.0947 267.119 35.2853 267.066 35.4387C266.974 35.685 266.926 35.9406 266.926 36.1777C266.926 36.7307 267.114 37.1862 267.473 37.5162C267.81 37.8462 268.243 38.0135 268.772 38.0135C269.38 38.0135 269.896 37.7207 270.277 37.1723L273.064 33.0683L275.85 37.1769C276.226 37.7254 276.747 38.0182 277.351 38.0182C277.871 38.0182 278.3 37.8601 278.667 37.5209C279.017 37.1769 279.197 36.7261 279.197 36.1823C279.197 35.9732 279.162 35.7408 279.074 35.448C279.008 35.2574 278.917 35.0854 278.794 34.8995V34.8902Z" fill="#FF7D00"/>
<path d="M290.893 22.5867C290.381 22.5867 289.943 22.7587 289.585 23.1119C289.243 23.4744 289.068 23.9671 289.068 24.5806V28.4196H283.911V24.5806C283.911 23.9671 283.736 23.4744 283.382 23.1026C283.032 22.7587 282.594 22.5867 282.082 22.5867C281.571 22.5867 281.133 22.7587 280.774 23.1119C280.433 23.4744 280.258 23.9671 280.258 24.5806V36.0047C280.258 36.6136 280.433 37.1109 280.787 37.4827C281.137 37.8267 281.575 37.9986 282.087 37.9986C282.599 37.9986 283.036 37.8267 283.395 37.4688C283.736 37.1063 283.911 36.6136 283.911 36.0001V32.0402H289.068V36.0001C289.068 36.6089 289.243 37.1063 289.598 37.4781C289.948 37.822 290.385 37.994 290.897 37.994C291.409 37.994 291.846 37.822 292.205 37.4641C292.546 37.1016 292.721 36.6089 292.721 35.9954V24.5713C292.721 23.9578 292.546 23.4651 292.192 23.0933C291.842 22.7494 291.404 22.5774 290.893 22.5774V22.5867Z" fill="#FF7D00"/>
<path d="M305.351 22.5923C304.747 22.5923 304.24 22.8712 303.838 23.4242L298.37 30.9861V24.5862C298.37 23.9773 298.195 23.48 297.84 23.1082C297.49 22.7643 297.053 22.5923 296.541 22.5923C296.029 22.5923 295.592 22.7643 295.233 23.1175C294.892 23.48 294.717 23.9727 294.717 24.5862V36.0103C294.717 36.6192 294.892 37.1119 295.246 37.4883C295.596 37.8323 296.034 38.0042 296.545 38.0042C297.149 38.0042 297.656 37.7254 298.059 37.1769L303.527 29.7033V36.015C303.527 36.6238 303.702 37.1165 304.056 37.493C304.406 37.8369 304.844 38.0089 305.356 38.0089C305.867 38.0089 306.305 37.8369 306.664 37.479C307.005 37.1165 307.18 36.6238 307.18 36.0103V24.5862C307.18 23.9773 307.005 23.48 306.65 23.1082C306.3 22.7643 305.863 22.5923 305.351 22.5923Z" fill="#FF7D00"/>
<path d="M315.635 29.835L318.942 26.3864C319.655 25.6288 319.988 25.0246 319.988 24.4761C319.988 23.9277 319.8 23.4908 319.424 23.119C318.85 22.552 318.054 22.4125 317.306 22.8494C317.092 22.9935 316.921 23.1376 316.79 23.3003L312.814 27.7807V24.5133C312.814 23.9277 312.634 23.4583 312.284 23.1144C311.934 22.7704 311.497 22.5985 310.985 22.5985C310.473 22.5985 310.005 22.7937 309.677 23.1655C309.336 23.528 309.161 23.9835 309.161 24.5133V36.1327C309.161 36.6904 309.34 37.1459 309.69 37.4898C310.04 37.8338 310.478 38.0057 310.99 38.0057C311.501 38.0057 311.956 37.8198 312.298 37.4573C312.639 37.0948 312.814 36.6486 312.814 36.1327V32.0938L317.035 36.9275C317.669 37.6432 318.251 38.0057 318.772 38.0057C319.292 38.0057 319.699 37.8617 320.049 37.5689C320.452 37.2249 320.653 36.7601 320.653 36.1931C320.653 35.6261 320.347 35.0312 319.743 34.3712L315.631 29.8304L315.635 29.835Z" fill="#FF7D00"/>
<path d="M333.956 35.9081C333.93 35.7222 333.882 35.527 333.825 35.3829L330.107 24.5304C329.691 23.2616 328.856 22.5923 327.696 22.5923C326.537 22.5923 325.754 23.243 325.286 24.5257L321.45 35.434L321.384 35.6525C321.336 35.8291 321.31 36.0103 321.31 36.187C321.31 36.7168 321.502 37.1723 321.865 37.5023C322.233 37.8369 322.653 38.0042 323.116 38.0042C323.982 38.0042 324.604 37.5209 324.866 36.6517L325.347 35.0901H330.041L330.522 36.6703C330.78 37.5302 331.406 38.0042 332.289 38.0042C332.753 38.0042 333.151 37.8462 333.475 37.5302C333.825 37.1909 334.004 36.7633 334.004 36.2613C334.004 36.173 333.991 36.0661 333.961 35.9034L333.956 35.9081ZM328.926 31.4927H326.423L327.688 27.4352L328.926 31.4927Z" fill="#FF7D00"/>
<path d="M179.263 1.99388C179.263 1.38038 179.088 0.88772 178.734 0.5159C178.384 0.171967 177.946 0 177.435 0C176.831 0 176.324 0.278865 175.921 0.831947L170.453 8.39384V1.99388C170.453 1.38038 170.278 0.88772 169.924 0.5159C169.574 0.171967 169.136 0 168.624 0C168.113 0 167.675 0.171967 167.316 0.525196C166.975 0.88772 166.8 1.38038 166.8 1.99388V13.4181C166.8 14.0269 166.975 14.5242 167.33 14.896C167.68 15.24 168.117 15.4119 168.629 15.4119C169.232 15.4119 169.74 15.1331 170.142 14.5846L175.61 7.11106V13.4227C175.61 14.0316 175.785 14.5289 176.14 14.9007C176.49 15.2446 176.927 15.4166 177.439 15.4166C177.951 15.4166 178.388 15.2446 178.747 14.8914C179.088 14.5289 179.263 14.0362 179.263 13.4227V1.99388Z" fill="#FF7D00"/>
<path d="M185.728 13.6514C185.89 13.6514 186.14 13.6328 186.446 13.5863C186.525 13.577 186.599 13.5631 186.678 13.5538C186.699 14.1069 186.874 14.5577 187.203 14.9063C187.553 15.2502 187.99 15.4222 188.502 15.4222C189.014 15.4222 189.451 15.2502 189.81 14.897C190.129 14.5577 190.3 14.1069 190.322 13.5538C190.4 13.5677 190.475 13.577 190.553 13.591C190.86 13.6328 191.105 13.656 191.271 13.656C192.789 13.656 194.062 13.0518 195.063 11.8667C196.039 10.7233 196.533 9.31039 196.533 7.66044C196.533 6.01049 196.048 4.58363 195.085 3.43564C194.084 2.24581 192.802 1.64625 191.275 1.64625C191.113 1.64625 190.868 1.66484 190.562 1.70667C190.479 1.71132 190.396 1.72062 190.313 1.72991C190.265 1.24655 190.098 0.84684 189.801 0.530793C189.451 0.186859 189.018 0.0148926 188.502 0.0148926C187.986 0.0148926 187.553 0.186859 187.194 0.540088C186.905 0.84684 186.734 1.24655 186.691 1.72991C186.616 1.72062 186.538 1.71132 186.468 1.70667C186.14 1.66484 185.895 1.6416 185.733 1.6416C184.202 1.6416 182.92 2.24581 181.923 3.43564C180.96 4.58363 180.475 6.00584 180.475 7.66044C180.475 9.31504 180.978 10.7373 181.962 11.8667C182.964 13.0565 184.232 13.656 185.737 13.656L185.728 13.6514ZM184.232 7.65579C184.232 6.96328 184.447 6.39625 184.888 5.93148C185.326 5.48529 185.833 5.26685 186.433 5.26685C186.507 5.26685 186.594 5.28079 186.743 5.29938L186.752 9.97037C186.586 10.0168 186.49 10.0261 186.433 10.0261C185.82 10.0261 185.317 9.817 184.888 9.38011C184.455 8.93392 184.232 8.3576 184.232 7.65579ZM190.252 9.97037V5.30403H190.265C190.374 5.28544 190.479 5.26685 190.571 5.26685C191.17 5.26685 191.678 5.48529 192.111 5.92683C192.557 6.39625 192.771 6.96328 192.771 7.65579C192.771 8.34831 192.553 8.93857 192.115 9.38011C191.691 9.81235 191.183 10.0261 190.571 10.0261C190.479 10.0261 190.405 10.0122 190.278 9.97502H190.252V9.97037Z" fill="#FF7D00"/>
<path d="M208.259 5.2752C208.259 3.72285 207.748 2.43542 206.742 1.4501C205.757 0.488014 204.497 0 202.997 0H199.637C198.421 0 197.756 0.715753 197.756 2.01248V13.4041C197.756 14.0176 197.931 14.5149 198.286 14.896C198.636 15.24 199.073 15.4166 199.585 15.4166C200.097 15.4166 200.534 15.24 200.893 14.8867C201.234 14.5196 201.409 14.0223 201.409 13.4088V10.5132H203.115C204.576 10.5132 205.757 10.0531 206.724 9.10494C207.743 8.12891 208.264 6.84149 208.264 5.27984L208.259 5.2752ZM204.493 5.25661C204.493 5.77715 204.357 6.17686 204.064 6.48826C203.789 6.81825 203.417 6.97627 202.94 6.97627H201.405V3.53694H202.94C203.417 3.53694 203.789 3.69031 204.073 4.01101C204.362 4.33635 204.493 4.73141 204.493 5.25661Z" fill="#FF7D00"/>
<path d="M215.897 15.4166C217.927 15.4166 219.62 14.6637 220.924 13.1764C222.188 11.7123 222.831 9.87182 222.831 7.70597C222.831 5.54012 222.175 3.74609 220.884 2.2774C219.576 0.766879 217.901 0 215.897 0C213.894 0 212.192 0.752935 210.893 2.23557C209.611 3.67637 208.964 5.51688 208.964 7.71062C208.964 9.90435 209.611 11.7216 210.893 13.181C212.192 14.6637 213.876 15.4166 215.897 15.4166ZM213.544 4.79183C214.13 3.97383 214.9 3.57412 215.897 3.57412C216.895 3.57412 217.669 3.97383 218.251 4.79183C218.789 5.55406 219.065 6.53938 219.065 7.71062C219.065 8.88185 218.798 9.90435 218.268 10.648C217.7 11.4521 216.921 11.8425 215.897 11.8425C214.874 11.8425 214.095 11.4521 213.526 10.648C212.997 9.90435 212.73 8.91438 212.73 7.71062C212.73 6.50685 213.006 5.55406 213.544 4.79183Z" fill="#FF7D00"/>
<path d="M226.141 15.4119H230.052C231.487 15.4119 232.65 14.989 233.508 14.157C234.405 13.3065 234.86 12.0888 234.86 10.5411C234.86 9.55577 234.545 8.682 233.919 7.943C233.521 7.47358 233.062 7.12035 232.537 6.89726C233.333 6.21404 233.74 5.25196 233.74 4.02495C233.74 2.79795 233.342 1.83586 232.563 1.09222C231.824 0.367172 230.883 0 229.768 0H226.124C225.581 0 225.131 0.167319 224.768 0.506605C224.405 0.869129 224.221 1.36179 224.221 1.966V13.4273C224.221 14.013 224.418 14.5196 224.798 14.9007C225.166 15.24 225.616 15.4166 226.141 15.4166V15.4119ZM227.874 11.8518V9.32339H229.483C230.901 9.32339 231.093 9.9183 231.093 10.5039C231.093 10.9315 230.971 11.2615 230.717 11.4892C230.459 11.7309 230.131 11.8518 229.711 11.8518H227.874ZM227.874 5.76321V3.56482H228.954C229.3 3.56482 229.571 3.65313 229.781 3.83439C229.995 4.0203 230.087 4.25269 230.087 4.58268C230.087 4.97774 229.995 5.25196 229.798 5.45181C229.588 5.66561 229.317 5.76321 228.954 5.76321H227.874Z" fill="#FF7D00"/>
<path d="M248.005 13.6737C248.005 13.5854 247.991 13.4785 247.961 13.3158C247.935 13.1299 247.886 12.9347 247.83 12.7906L244.111 1.93811C243.696 0.669276 242.86 0 241.701 0C240.542 0 239.759 0.650685 239.291 1.93346L235.454 12.8417L235.389 13.0602C235.34 13.2368 235.314 13.4181 235.314 13.5947C235.314 14.1245 235.507 14.58 235.87 14.91C236.237 15.2446 236.657 15.4119 237.121 15.4119C237.987 15.4119 238.608 14.9332 238.871 14.0594L239.352 12.4931H244.046L244.527 14.0734C244.785 14.9332 245.41 15.4073 246.294 15.4073C246.758 15.4073 247.156 15.2493 247.48 14.9332C247.83 14.5939 248.009 14.1663 248.009 13.6644L248.005 13.6737ZM242.935 8.90044H240.432L241.697 4.84295L242.935 8.90044Z" fill="#FF7D00"/>
<path d="M259.236 13.3995V2.00783C259.236 0.711106 258.576 0 257.373 0H254.03C250.675 0 248.899 1.73361 248.899 5.01027C248.899 6.19545 249.289 7.18542 250.05 7.95695C250.57 8.4775 251.235 8.85861 252.036 9.09565L249.289 12.2329C248.969 12.6 248.803 13.0091 248.803 13.4181C248.803 13.934 248.978 14.4034 249.31 14.7845C249.84 15.3887 250.557 15.5886 251.366 15.2446C251.563 15.1517 251.843 14.989 252.04 14.7241L255.579 10.146V13.3995C255.579 14.013 255.754 14.5103 256.108 14.8867C256.458 15.2307 256.896 15.4073 257.408 15.4073C257.919 15.4073 258.357 15.2307 258.716 14.8774C259.057 14.5103 259.232 14.013 259.232 13.3995H259.236ZM253.024 4.01566C253.278 3.77397 253.611 3.65778 254.03 3.65778H255.583V6.38601H254.03C253.606 6.38601 253.282 6.26517 253.033 6.01419C252.788 5.76786 252.666 5.43322 252.666 5.01027C252.666 4.58733 252.788 4.23875 253.024 4.01566Z" fill="#FF7D00"/>
<path d="M277.86 0C277.256 0 276.749 0.278865 276.346 0.831947L270.878 8.39384V1.99388C270.878 1.38503 270.703 0.88772 270.349 0.5159C269.999 0.171967 269.562 0 269.05 0C268.538 0 268.1 0.171967 267.742 0.525196C267.401 0.88772 267.226 1.38038 267.226 1.99388V13.4181C267.226 14.0269 267.401 14.5196 267.755 14.896C268.105 15.24 268.542 15.4119 269.054 15.4119C269.658 15.4119 270.165 15.1331 270.568 14.5846L276.036 7.11106V13.4227C276.036 14.0316 276.211 14.5242 276.565 14.9007C276.915 15.2446 277.353 15.4166 277.864 15.4166C278.376 15.4166 278.814 15.2446 279.172 14.8867C279.513 14.5242 279.688 14.0316 279.688 13.4181V1.99388C279.688 1.38503 279.513 0.88772 279.159 0.5159C278.809 0.171967 278.372 0 277.86 0Z" fill="#FF7D00"/>
<path d="M165.303 17.5127C165.644 17.1455 165.819 16.6482 165.819 16.0347V13.8921C165.819 13.2879 165.64 12.7906 165.285 12.4141C164.962 12.0656 164.516 11.8843 163.995 11.8843H163.921V2.01248C163.921 1.39897 163.746 0.897016 163.391 0.520548C163.041 0.176614 162.604 0 162.092 0C161.58 0 161.143 0.176614 160.784 0.529843C160.443 0.897016 160.268 1.39432 160.268 2.00783V11.8796H155.11V2.01248C155.11 1.39897 154.935 0.897016 154.581 0.520548C154.231 0.176614 153.794 0 153.282 0C152.77 0 152.333 0.176614 151.974 0.529843C151.633 0.897016 151.458 1.39432 151.458 2.00783V13.3995C151.458 13.999 151.637 14.4963 151.991 14.8774C152.315 15.226 152.761 15.4073 153.282 15.4073H162.162V16.0254C162.162 16.6436 162.337 17.1409 162.691 17.5174C163.041 17.8613 163.474 18.0379 163.991 18.0379C164.507 18.0379 164.944 17.8613 165.299 17.5081L165.303 17.5127Z" fill="#FF7D00"/>
</g>
<defs>
<clipPath id="clip0_1_7">
<rect width="334" height="38" fill="white"/>
</clipPath>
</defs>
</svg>
