<svg width="146" height="16" viewBox="0 0 146 16" fill="none" xmlns="http://www.w3.org/2000/svg">
<g clip-path="url(#clip0_63_848)">
<path d="M37.2477 0H41.1199V14.0098C41.1199 14.8102 40.6475 15.5342 39.9247 15.8395C39.6857 15.9413 39.4333 15.9902 39.1847 15.9902C38.6818 15.9902 38.221 15.728 37.8156 15.409L24.9025 5.85714V15.998H21.0303V1.99022C21.0303 1.18982 21.5026 0.450098 22.2255 0.144814C22.9483 -0.162427 23.6921 0.0978474 24.3346 0.573386L37.2477 10.1409V0ZM60.76 7.47749C60.3126 7.01957 59.7925 6.66145 59.2111 6.409C58.6088 6.14873 57.9701 6.02348 57.3143 6.02348H46.9712C46.4186 6.02348 45.9692 5.5636 45.9692 4.99804C45.9692 4.43249 46.4186 3.9726 46.9712 3.9726H59.2303C60.2992 3.9726 61.1654 3.08611 61.1654 1.99217C61.1654 0.898239 60.2992 0.00978474 59.2303 0.00978474H46.9712C46.3134 0.00978474 45.6747 0.142857 45.0743 0.403131C44.493 0.65362 43.9729 1.0137 43.5254 1.47162C43.078 1.92955 42.728 2.46184 42.4813 3.05675C42.227 3.67319 42.097 4.32681 42.097 4.99804C42.097 5.66928 42.227 6.32485 42.4813 6.93933C42.7261 7.53425 43.078 8.06654 43.5254 8.52446C43.9729 8.98239 44.493 9.34051 45.0743 9.59296C45.6766 9.85323 46.3153 9.9863 46.9712 9.9863H57.3143V9.98043C57.8669 9.98043 58.3143 10.4403 58.3143 11.0039C58.3143 11.5675 57.865 12.0274 57.3143 12.0274H44.034C42.9651 12.0274 42.0989 12.9139 42.0989 14.0078C42.0989 15.1018 42.9651 15.9883 44.034 15.9883H57.3143C57.972 15.9883 58.6088 15.8552 59.2111 15.5949C59.7925 15.3444 60.3126 14.9843 60.76 14.5264C61.2075 14.0685 61.5574 13.5362 61.8041 12.9413C62.0584 12.3249 62.1884 11.6712 62.1884 11C62.1884 10.3288 62.0584 9.67515 61.8041 9.05871C61.5593 8.4638 61.2075 7.93151 60.76 7.47358V7.47749ZM20.1087 8C20.1087 12.4188 16.6093 16 12.2916 16H0V0H12.2916C16.6093 0 20.1087 3.58121 20.1087 8ZM16.2192 8C16.2192 6.92564 15.81 5.91781 15.07 5.15851C14.3281 4.39922 13.3414 3.98239 12.2935 3.98239H3.88941V12.0196H12.2897C13.3395 12.0196 14.3243 11.6008 15.0662 10.8434C15.8081 10.0841 16.2154 9.07436 16.2154 8.00196L16.2192 8Z" fill="#FF7D00"/>
<path d="M70.2012 12.4153C69.8111 12.1042 69.2757 11.9476 68.6083 11.9476H67.8052V11.0729H69.5128C69.7499 11.0729 69.9468 10.9848 70.0826 10.8243C70.2145 10.6756 70.2776 10.5034 70.2776 10.2959C70.2776 10.0885 70.2165 9.91434 70.0903 9.75974C69.9488 9.60123 69.7537 9.521 69.5128 9.521H67.0403C66.8032 9.521 66.6062 9.59145 66.4475 9.7343C66.2888 9.88695 66.2085 10.0944 66.2085 10.3488V15.1746C66.2085 15.4212 66.2945 15.6345 66.4609 15.795C66.6215 15.9378 66.8185 16.0122 67.048 16.0122H68.7575C69.3847 16.0122 69.8933 15.8341 70.2681 15.4838C70.6601 15.1257 70.859 14.613 70.859 13.9613C70.859 13.3096 70.6391 12.7715 70.2012 12.4153ZM69.2126 13.9457C69.2126 14.1257 69.159 14.2646 69.0481 14.3605C68.9353 14.4623 68.7919 14.5132 68.6083 14.5132H67.8052V13.4486H68.5089C69.1284 13.4486 69.2126 13.6991 69.2126 13.9457Z" fill="#FF7D00"/>
<path d="M77.0308 9.51245C76.8071 9.51245 76.6158 9.58486 76.459 9.73359C76.3099 9.88623 76.2334 10.0937 76.2334 10.352V15.1622C76.2334 15.4185 76.3099 15.6279 76.4648 15.7845C76.6177 15.9293 76.809 16.0017 77.0327 16.0017C77.2564 16.0017 77.4476 15.9273 77.6044 15.7786C77.7536 15.626 77.8301 15.4185 77.8301 15.1602V10.35C77.8301 10.0937 77.7536 9.88427 77.5987 9.72772C77.4457 9.5829 77.2564 9.5105 77.0308 9.5105V9.51245Z" fill="#FF7D00"/>
<path d="M75.2501 12.3879C74.86 12.0611 74.3227 11.8948 73.6534 11.8948H72.9746V10.3684C72.9746 10.1081 72.8981 9.89869 72.7432 9.74017C72.5903 9.59536 72.399 9.521 72.1753 9.521C71.9516 9.521 71.7604 9.59536 71.6036 9.74409C71.4544 9.89869 71.3779 10.1081 71.3779 10.3664V15.1805C71.3779 15.4251 71.464 15.6365 71.6303 15.795C71.791 15.9378 71.9879 16.0102 72.2174 16.0102H73.8026C74.4298 16.0102 74.9384 15.8263 75.3171 15.4662C75.7071 15.0924 75.9041 14.5777 75.9041 13.9339C75.9041 13.2901 75.6842 12.746 75.2501 12.386V12.3879ZM74.2577 13.9202C74.2577 14.1042 74.2003 14.2509 74.0856 14.3644C73.9823 14.4701 73.837 14.5249 73.6534 14.5249H72.9746V13.384H73.554C73.793 13.384 73.9709 13.4368 74.0971 13.5464C74.2061 13.6404 74.2577 13.7597 74.2577 13.9202Z" fill="#FF7D00"/>
<path d="M82.5795 9.75779C82.4361 9.59732 82.2583 9.521 82.0365 9.521H78.9827C78.7609 9.521 78.583 9.59927 78.4396 9.75779C78.3096 9.9026 78.2427 10.0807 78.2427 10.2901C78.2427 10.4995 78.3 10.6658 78.4148 10.8048C78.5467 10.975 78.7379 11.0592 78.9827 11.0592H79.7112V15.1629C79.7112 15.4212 79.7877 15.6325 79.9426 15.7911C80.0956 15.9359 80.2868 16.0102 80.5105 16.0102C80.7343 16.0102 80.9255 15.9359 81.0823 15.7852C81.2314 15.6306 81.3079 15.4212 81.3079 15.1629V11.0592H82.0365C82.2812 11.0592 82.4725 10.9731 82.6025 10.8067C82.7191 10.6639 82.7765 10.4936 82.7765 10.2881C82.7765 10.0826 82.7115 9.90064 82.5795 9.75583V9.75779Z" fill="#FF7D00"/>
<path d="M85.752 9.521C84.8686 9.521 84.1324 9.83802 83.5645 10.4623C83.0042 11.0689 82.7212 11.8439 82.7212 12.7676C82.7212 13.6913 83.0042 14.4564 83.5645 15.0709C84.1324 15.6952 84.8686 16.0122 85.752 16.0122C86.6355 16.0122 87.3793 15.6952 87.9491 15.0689C88.5018 14.4525 88.7829 13.6776 88.7829 12.7656C88.7829 11.8537 88.496 11.0983 87.9319 10.4799C87.3602 9.84389 86.6278 9.521 85.752 9.521ZM84.7233 11.5367C84.9776 11.1922 85.316 11.0239 85.752 11.0239C86.188 11.0239 86.5265 11.1922 86.7808 11.5367C87.016 11.8576 87.1365 12.2725 87.1365 12.7656C87.1365 13.2588 87.0198 13.6893 86.7884 14.0024C86.5398 14.341 86.1995 14.5053 85.752 14.5053C85.3046 14.5053 84.9642 14.341 84.7156 14.0024C84.4842 13.6893 84.3676 13.2725 84.3676 12.7656C84.3676 12.2588 84.4881 11.8576 84.7233 11.5367Z" fill="#FF7D00"/>
<path d="M93.0223 12.4251C93.3703 12.1374 93.5481 11.7323 93.5481 11.2157C93.5481 10.6991 93.3741 10.294 93.0338 9.98088C92.7106 9.6756 92.2995 9.521 91.8119 9.521H90.219C89.9819 9.521 89.7849 9.59145 89.6262 9.7343C89.4675 9.88695 89.3872 10.0944 89.3872 10.3488V15.1746C89.3872 15.4212 89.4733 15.6325 89.6396 15.795C89.8002 15.9378 89.9972 16.0122 90.2267 16.0122H91.9362C92.5634 16.0122 93.072 15.8341 93.4468 15.4838C93.8388 15.1257 94.0377 14.613 94.0377 13.9613C94.0377 13.5464 93.9 13.1785 93.6265 12.8674C93.4525 12.6697 93.2518 12.521 93.0223 12.4271V12.4251ZM92.3913 13.9417C92.3913 14.1218 92.3377 14.2607 92.2268 14.3566C92.114 14.4603 91.9706 14.5093 91.787 14.5093H90.9839V13.4447H91.6876C92.3071 13.4447 92.3913 13.6952 92.3913 13.9417ZM90.9839 11.9437V11.0181H91.4562C91.6073 11.0181 91.7258 11.0552 91.8176 11.1316C91.9113 11.2098 91.9515 11.3057 91.9515 11.4466C91.9515 11.613 91.9113 11.7284 91.8253 11.8126C91.7316 11.9026 91.6149 11.9437 91.4562 11.9437H90.9839Z" fill="#FF7D00"/>
<path d="M99.7135 14.9065L98.0881 10.337C97.9064 9.8028 97.5412 9.521 97.0345 9.521C96.5278 9.521 96.1855 9.79497 95.9809 10.3351L94.3039 14.928L94.2752 15.02C94.2542 15.0944 94.2427 15.1707 94.2427 15.2451C94.2427 15.4682 94.3268 15.6599 94.4855 15.7989C94.6461 15.9398 94.8297 16.0102 95.0324 16.0102C95.411 16.0102 95.6845 15.8067 95.7973 15.4408L96.0076 14.7832H98.0594L98.2698 15.4486C98.3826 15.8106 98.656 16.0102 99.0423 16.0102C99.245 16.0102 99.419 15.9437 99.5605 15.8106C99.7135 15.6658 99.7919 15.4877 99.7919 15.2764C99.7919 15.2412 99.7861 15.1961 99.7727 15.1257C99.7613 15.0474 99.7402 14.9652 99.7135 14.9046V14.9065ZM97.5737 13.2686H96.4799L97.0326 11.5601L97.5737 13.2686Z" fill="#FF7D00"/>
<path d="M103.88 9.521H102.419C100.953 9.521 100.176 10.2509 100.176 11.6306C100.176 12.1296 100.347 12.5464 100.679 12.8713C100.907 13.0905 101.197 13.2509 101.547 13.3507L100.347 14.6717C100.207 14.8263 100.134 14.9985 100.134 15.1707C100.134 15.3879 100.211 15.5856 100.356 15.746C100.587 16.0004 100.903 16.0846 101.255 15.9398C101.341 15.9006 101.465 15.8321 101.549 15.7206L103.096 13.793V15.1629C103.096 15.4212 103.173 15.6306 103.328 15.7891C103.481 15.9339 103.672 16.0083 103.896 16.0083C104.119 16.0083 104.311 15.9339 104.467 15.7852C104.616 15.6306 104.693 15.4212 104.693 15.1629V10.3684C104.693 9.82237 104.404 9.52295 103.878 9.52295L103.88 9.521ZM101.98 11.2098C102.09 11.1081 102.236 11.0592 102.419 11.0592H103.098V12.2079H102.419C102.234 12.2079 102.092 12.157 101.983 12.0513C101.876 11.9496 101.823 11.8067 101.823 11.6286C101.823 11.4505 101.874 11.3038 101.98 11.2098Z" fill="#FF7D00"/>
<path d="M111.504 9.51245H108.45C108.229 9.51245 108.051 9.59073 107.907 9.74925C107.777 9.89406 107.71 10.0741 107.71 10.2815C107.71 10.489 107.768 10.6553 107.883 10.7962C108.014 10.9645 108.206 11.0506 108.45 11.0506H109.179V15.1543C109.179 15.4126 109.256 15.622 109.41 15.7825C109.563 15.9273 109.755 16.0017 109.978 16.0017C110.202 16.0017 110.393 15.9273 110.55 15.7766C110.699 15.622 110.776 15.4126 110.776 15.1543V11.0506H111.504C111.749 11.0506 111.94 10.9645 112.07 10.7982C112.187 10.6553 112.244 10.4851 112.244 10.2796C112.244 10.0741 112.177 9.8921 112.047 9.74729C111.904 9.58682 111.726 9.5105 111.504 9.5105V9.51245Z" fill="#FF7D00"/>
<path d="M115.597 14.4603H114.238V13.5171H115.423C115.664 13.5171 115.861 13.4329 116.008 13.2685C116.14 13.1198 116.203 12.9476 116.203 12.7402C116.203 12.5327 116.138 12.3507 116.007 12.204C115.867 12.0474 115.664 11.9652 115.421 11.9652H114.236V11.0729H115.521C115.762 11.0729 115.953 10.9887 116.089 10.8243C116.221 10.6756 116.284 10.5034 116.284 10.2959C116.284 10.0885 116.223 9.91434 116.096 9.75974C115.955 9.60123 115.76 9.521 115.519 9.521H113.461C112.93 9.521 112.639 9.85172 112.639 10.4505V15.1824C112.639 15.4251 112.719 15.6267 112.878 15.7793C113.035 15.932 113.23 16.0083 113.454 16.0083H115.595C115.833 16.0083 116.031 15.9202 116.165 15.7597C116.297 15.611 116.36 15.4388 116.36 15.2314C116.36 15.0239 116.299 14.8498 116.173 14.6952C116.031 14.5367 115.836 14.4564 115.595 14.4564L115.597 14.4603Z" fill="#FF7D00"/>
<path d="M121.866 14.6991L120.3 12.5523L121.564 10.8008C121.675 10.656 121.735 10.4897 121.735 10.3175C121.735 10.0729 121.652 9.8752 121.496 9.73822C121.343 9.5934 121.151 9.521 120.928 9.521C120.65 9.521 120.413 9.65603 120.245 9.91043L119.36 11.1922L118.476 9.91239C118.306 9.65603 118.069 9.521 117.792 9.521C117.568 9.521 117.377 9.5934 117.228 9.7343C117.067 9.87716 116.985 10.0729 116.985 10.3194C116.985 10.4916 117.044 10.658 117.151 10.7989L118.419 12.5562L116.851 14.7049C116.793 14.7852 116.763 14.8654 116.74 14.93C116.7 15.0337 116.679 15.1413 116.679 15.2412C116.679 15.474 116.761 15.6658 116.918 15.8048C117.065 15.9437 117.254 16.0141 117.486 16.0141C117.751 16.0141 117.977 15.8909 118.143 15.6599L119.362 13.932L120.58 15.6619C120.744 15.8928 120.972 16.0161 121.235 16.0161C121.463 16.0161 121.65 15.9496 121.811 15.8067C121.964 15.6619 122.042 15.4721 122.042 15.2431C122.042 15.155 122.027 15.0572 121.989 14.9339C121.96 14.8537 121.92 14.7813 121.866 14.703V14.6991Z" fill="#FF7D00"/>
<path d="M127.156 9.51441C126.932 9.51441 126.741 9.58682 126.584 9.73555C126.435 9.88819 126.358 10.0956 126.358 10.3539V11.9704H124.104V10.3539C124.104 10.0956 124.028 9.88819 123.873 9.73163C123.72 9.58682 123.528 9.51441 123.305 9.51441C123.081 9.51441 122.89 9.58682 122.733 9.73555C122.584 9.88819 122.507 10.0956 122.507 10.3539V15.1641C122.507 15.4205 122.584 15.6299 122.739 15.7864C122.892 15.9312 123.083 16.0036 123.307 16.0036C123.53 16.0036 123.722 15.9312 123.878 15.7806C124.028 15.6279 124.104 15.4205 124.104 15.1622V13.4948H126.358V15.1622C126.358 15.4185 126.435 15.6279 126.59 15.7845C126.743 15.9293 126.934 16.0017 127.158 16.0017C127.382 16.0017 127.573 15.9293 127.73 15.7786C127.879 15.626 127.955 15.4185 127.955 15.1602V10.35C127.955 10.0917 127.879 9.88428 127.724 9.72772C127.571 9.58291 127.38 9.5105 127.156 9.5105V9.51441Z" fill="#FF7D00"/>
<path d="M133.476 9.521C133.212 9.521 132.99 9.63841 132.815 9.87129L130.424 13.0552V10.3605C130.424 10.1042 130.348 9.89477 130.193 9.73822C130.04 9.5934 129.849 9.521 129.625 9.521C129.401 9.521 129.21 9.5934 129.053 9.74213C128.904 9.89477 128.828 10.1022 128.828 10.3605V15.1707C128.828 15.4271 128.904 15.6345 129.059 15.793C129.212 15.9378 129.403 16.0102 129.627 16.0102C129.891 16.0102 130.113 15.8928 130.289 15.6619L132.679 12.5151V15.1727C132.679 15.429 132.755 15.6365 132.91 15.795C133.063 15.9398 133.254 16.0122 133.478 16.0122C133.702 16.0122 133.893 15.9398 134.05 15.7891C134.199 15.6365 134.275 15.429 134.275 15.1707V10.3605C134.275 10.1042 134.199 9.89477 134.044 9.73822C133.891 9.5934 133.7 9.521 133.476 9.521Z" fill="#FF7D00"/>
<path d="M137.978 12.5706L139.424 11.1185C139.736 10.7995 139.881 10.5451 139.881 10.3142C139.881 10.0833 139.799 9.89933 139.634 9.74277C139.384 9.50403 139.036 9.44532 138.709 9.62927C138.615 9.68994 138.541 9.7506 138.483 9.81909L136.745 11.7056V10.3299C136.745 10.0833 136.667 9.88563 136.514 9.74082C136.361 9.596 136.17 9.52359 135.946 9.52359C135.722 9.52359 135.517 9.60579 135.374 9.76234C135.225 9.91498 135.148 10.1068 135.148 10.3299V15.2222C135.148 15.4571 135.227 15.6488 135.38 15.7937C135.533 15.9385 135.724 16.0109 135.948 16.0109C136.171 16.0109 136.37 15.9326 136.519 15.78C136.669 15.6273 136.745 15.4394 136.745 15.2222V13.5216L138.59 15.5569C138.868 15.8582 139.122 16.0109 139.35 16.0109C139.577 16.0109 139.755 15.9502 139.908 15.8269C140.084 15.6821 140.172 15.4864 140.172 15.2477C140.172 15.0089 140.038 14.7584 139.774 14.4805L137.977 12.5686L137.978 12.5706Z" fill="#FF7D00"/>
<path d="M145.982 15.1276C145.97 15.0494 145.949 14.9672 145.924 14.9065L144.299 10.337C144.117 9.8028 143.752 9.521 143.245 9.521C142.739 9.521 142.396 9.79497 142.192 10.3351L140.515 14.928L140.486 15.02C140.465 15.0944 140.454 15.1707 140.454 15.2451C140.454 15.4682 140.538 15.6599 140.696 15.7989C140.857 15.9398 141.041 16.0102 141.243 16.0102C141.622 16.0102 141.893 15.8067 142.008 15.4408L142.219 14.7832H144.27L144.481 15.4486C144.594 15.8106 144.867 16.0102 145.253 16.0102C145.456 16.0102 145.63 15.9437 145.771 15.8106C145.924 15.6678 146.003 15.4877 146.003 15.2764C146.003 15.2392 145.997 15.1942 145.984 15.1257L145.982 15.1276ZM143.783 13.2685H142.689L143.242 11.5601L143.783 13.2685Z" fill="#FF7D00"/>
<path d="M78.3639 0.83953C78.3639 0.581213 78.2874 0.373777 78.1325 0.217221C77.9795 0.072407 77.7883 0 77.5646 0C77.3007 0 77.0789 0.117417 76.9029 0.350294L74.5127 3.53425V0.83953C74.5127 0.581213 74.4362 0.373777 74.2813 0.217221C74.1284 0.072407 73.9371 0 73.7134 0C73.4897 0 73.2985 0.072407 73.1417 0.221135C72.9925 0.373777 72.916 0.581213 72.916 0.83953V5.64971C72.916 5.90607 72.9925 6.11546 73.1474 6.27202C73.3004 6.41683 73.4916 6.48924 73.7153 6.48924C73.9792 6.48924 74.201 6.37182 74.3769 6.1409L76.7672 2.99413V5.65166C76.7672 5.90802 76.8437 6.11742 76.9986 6.27397C77.1515 6.41879 77.3428 6.49119 77.5665 6.49119C77.7902 6.49119 77.9814 6.41879 78.1382 6.27006C78.2874 6.11742 78.3639 5.90998 78.3639 5.65166V0.83953Z" fill="#FF7D00"/>
<path d="M81.1881 5.75218C81.2589 5.75218 81.3679 5.74435 81.5017 5.72478C81.5362 5.72087 81.5687 5.715 81.6031 5.71108C81.6127 5.94396 81.6891 6.13379 81.8326 6.28056C81.9855 6.42537 82.1768 6.49778 82.4005 6.49778C82.6242 6.49778 82.8154 6.42537 82.9722 6.27664C83.1118 6.13379 83.1864 5.94396 83.196 5.71108C83.2304 5.71696 83.2629 5.72087 83.2973 5.72674C83.4312 5.74435 83.5382 5.75414 83.6109 5.75414C84.2744 5.75414 84.8309 5.49973 85.2688 5.00071C85.6952 4.5193 85.9113 3.92439 85.9113 3.22968C85.9113 2.53496 85.699 1.93418 85.2783 1.45081C84.8404 0.949833 84.2802 0.697386 83.6128 0.697386C83.5421 0.697386 83.435 0.705214 83.3011 0.722827C83.2648 0.724784 83.2285 0.728698 83.1921 0.732612C83.1711 0.529089 83.0984 0.360792 82.9684 0.227719C82.8154 0.0829051 82.6261 0.010498 82.4005 0.010498C82.1748 0.010498 81.9855 0.0829051 81.8287 0.231633C81.7025 0.360792 81.628 0.529089 81.6088 0.732612C81.5763 0.728698 81.5419 0.724784 81.5113 0.722827C81.3679 0.705214 81.2608 0.69543 81.1901 0.69543C80.5208 0.69543 79.9605 0.949833 79.5245 1.45081C79.1039 1.93418 78.8916 2.533 78.8916 3.22968C78.8916 3.92635 79.1115 4.52518 79.5417 5.00071C79.9796 5.50169 80.5342 5.75414 81.192 5.75414L81.1881 5.75218ZM80.5342 3.22772C80.5342 2.93613 80.6279 2.69739 80.821 2.50169C81.0122 2.31382 81.234 2.22185 81.496 2.22185C81.5285 2.22185 81.5668 2.22772 81.6318 2.23555L81.6356 4.20228C81.5629 4.22185 81.5209 4.22576 81.496 4.22576C81.2283 4.22576 81.0084 4.1377 80.821 3.95375C80.6317 3.76588 80.5342 3.52322 80.5342 3.22772ZM83.1654 4.20228V2.2375H83.1711C83.2189 2.22968 83.2648 2.22185 83.3049 2.22185C83.5669 2.22185 83.7887 2.31382 83.978 2.49973C84.1731 2.69739 84.2668 2.93613 84.2668 3.22772C84.2668 3.5193 84.1712 3.76784 83.98 3.95375C83.7945 4.13574 83.5727 4.22576 83.3049 4.22576C83.2648 4.22576 83.2323 4.21989 83.1768 4.20424H83.1654V4.20228Z" fill="#FF7D00"/>
<path d="M91.038 2.22114C91.038 1.56751 90.8142 1.02544 90.3744 0.610567C89.9442 0.205479 89.3935 0 88.7376 0H87.269C86.7374 0 86.4468 0.30137 86.4468 0.847358V5.64384C86.4468 5.90215 86.5233 6.11155 86.6782 6.27202C86.8311 6.41683 87.0224 6.49119 87.2461 6.49119C87.4698 6.49119 87.661 6.41683 87.8178 6.2681C87.967 6.1135 88.0435 5.90411 88.0435 5.64579V4.42661H88.7892C89.4279 4.42661 89.9442 4.23288 90.3668 3.83366C90.8123 3.4227 91.0399 2.88063 91.0399 2.22309L91.038 2.22114ZM89.3916 2.21331C89.3916 2.43249 89.3323 2.60078 89.2042 2.7319C89.0837 2.87084 88.9212 2.93738 88.7127 2.93738H88.0416V1.48924H88.7127C88.9212 1.48924 89.0837 1.55382 89.208 1.68885C89.3342 1.82583 89.3916 1.99217 89.3916 2.21331Z" fill="#FF7D00"/>
<path d="M94.3751 6.49119C95.2623 6.49119 96.0023 6.17417 96.5722 5.54795C97.1248 4.93151 97.4059 4.15656 97.4059 3.24462C97.4059 2.33268 97.1191 1.5773 96.555 0.958904C95.9832 0.322896 95.2509 0 94.3751 0C93.4993 0 92.7554 0.317025 92.1875 0.941292C91.6272 1.54795 91.3442 2.3229 91.3442 3.24658C91.3442 4.17025 91.6272 4.93542 92.1875 5.5499C92.7554 6.17417 93.4916 6.49119 94.3751 6.49119ZM93.3463 2.01761C93.6025 1.67319 93.9391 1.50489 94.3751 1.50489C94.8111 1.50489 95.1495 1.67319 95.4038 2.01761C95.639 2.33855 95.7595 2.75342 95.7595 3.24658C95.7595 3.73973 95.6429 4.17025 95.4115 4.48337C95.1629 4.82192 94.8225 4.9863 94.3751 4.9863C93.9276 4.9863 93.5872 4.82192 93.3387 4.48337C93.1073 4.17025 92.9906 3.75342 92.9906 3.24658C92.9906 2.73973 93.1111 2.33855 93.3463 2.01761Z" fill="#FF7D00"/>
<path d="M98.8492 6.48924H100.559C101.186 6.48924 101.695 6.31115 102.069 5.96086C102.461 5.60274 102.66 5.09002 102.66 4.43836C102.66 4.02348 102.523 3.65558 102.249 3.34442C102.075 3.14677 101.874 2.99804 101.645 2.90411C101.993 2.61644 102.171 2.21135 102.171 1.69472C102.171 1.17808 101.997 0.772994 101.656 0.459883C101.333 0.154599 100.922 0 100.434 0H98.8416C98.6045 0 98.4075 0.0704501 98.2488 0.213307C98.0901 0.365949 98.0098 0.573385 98.0098 0.827789V5.65362C98.0098 5.9002 98.0958 6.1135 98.2622 6.27397C98.4228 6.41683 98.6198 6.49119 98.8492 6.49119V6.48924ZM99.6064 4.99022V3.92564H100.31C100.93 3.92564 101.014 4.17613 101.014 4.4227C101.014 4.60274 100.96 4.74168 100.849 4.83757C100.737 4.93933 100.593 4.99022 100.41 4.99022H99.6064ZM99.6064 2.42661V1.50098H100.079C100.23 1.50098 100.348 1.53816 100.44 1.61448C100.534 1.69276 100.574 1.79061 100.574 1.92955C100.574 2.09589 100.534 2.21135 100.448 2.2955C100.356 2.38552 100.237 2.42661 100.079 2.42661H99.6064Z" fill="#FF7D00"/>
<path d="M108.413 5.75734C108.413 5.72016 108.407 5.67515 108.393 5.60665C108.382 5.52838 108.361 5.44618 108.336 5.38552L106.711 0.816047C106.529 0.2818 106.164 0 105.657 0C105.15 0 104.808 0.273973 104.603 0.81409L102.926 5.40704L102.898 5.49902C102.877 5.57339 102.865 5.64971 102.865 5.72407C102.865 5.94716 102.949 6.13894 103.108 6.27789C103.269 6.41879 103.452 6.48924 103.655 6.48924C104.034 6.48924 104.305 6.28767 104.42 5.91976L104.63 5.26027H106.682L106.892 5.92564C107.005 6.28767 107.279 6.48728 107.665 6.48728C107.868 6.48728 108.042 6.42074 108.183 6.28767C108.336 6.14481 108.414 5.96477 108.414 5.75342L108.413 5.75734ZM106.196 3.74755H105.103L105.655 2.03914L106.196 3.74755Z" fill="#FF7D00"/>
<path d="M113.317 5.64188V0.845401C113.317 0.299413 113.029 0 112.503 0H111.042C109.575 0 108.799 0.729941 108.799 2.10959C108.799 2.60861 108.969 3.02544 109.302 3.35029C109.529 3.56947 109.82 3.72994 110.17 3.82975L108.969 5.15068C108.829 5.30528 108.757 5.4775 108.757 5.64971C108.757 5.86693 108.833 6.06458 108.979 6.22505C109.21 6.47945 109.524 6.5636 109.877 6.41879C109.963 6.37965 110.086 6.31115 110.172 6.19961L111.719 4.27202V5.64188C111.719 5.9002 111.795 6.10959 111.95 6.2681C112.103 6.41292 112.294 6.48728 112.518 6.48728C112.742 6.48728 112.933 6.41292 113.09 6.26419C113.239 6.10959 113.316 5.9002 113.316 5.64188H113.317ZM110.602 1.6908C110.713 1.58904 110.858 1.54012 111.042 1.54012H111.721V2.68885H111.042C110.856 2.68885 110.715 2.63796 110.606 2.53229C110.499 2.42857 110.445 2.28767 110.445 2.10959C110.445 1.93151 110.499 1.78474 110.602 1.6908Z" fill="#FF7D00"/>
<path d="M121.463 0C121.199 0 120.977 0.117417 120.801 0.350294L118.411 3.53425V0.83953C118.411 0.58317 118.335 0.373777 118.18 0.217221C118.027 0.072407 117.836 0 117.612 0C117.388 0 117.197 0.072407 117.04 0.221135C116.891 0.373777 116.814 0.581213 116.814 0.83953V5.64971C116.814 5.90607 116.891 6.1135 117.046 6.27202C117.199 6.41683 117.39 6.48924 117.614 6.48924C117.878 6.48924 118.099 6.37182 118.275 6.1409L120.666 2.99413V5.65166C120.666 5.90802 120.742 6.11546 120.897 6.27397C121.05 6.41879 121.241 6.49119 121.465 6.49119C121.689 6.49119 121.88 6.41879 122.037 6.2681C122.186 6.11546 122.262 5.90802 122.262 5.64971V0.83953C122.262 0.58317 122.186 0.373777 122.031 0.217221C121.878 0.072407 121.687 0 121.463 0Z" fill="#FF7D00"/>
<path d="M72.2606 7.37378C72.4098 7.21918 72.4862 7.00978 72.4862 6.75147V5.84931C72.4862 5.59491 72.4078 5.38552 72.253 5.22701C72.1114 5.08023 71.9164 5.00391 71.6889 5.00391H71.6563V0.847358C71.6563 0.589041 71.5799 0.377691 71.425 0.219178C71.272 0.074364 71.0808 0 70.857 0C70.6333 0 70.4421 0.074364 70.2853 0.223092C70.1361 0.377691 70.0597 0.587084 70.0597 0.845401V5.00196H67.8052V0.847358C67.8052 0.589041 67.7287 0.377691 67.5738 0.219178C67.4208 0.074364 67.2296 0 67.0059 0C66.7822 0 66.5909 0.074364 66.4341 0.223092C66.285 0.377691 66.2085 0.587084 66.2085 0.845401V5.64188C66.2085 5.89432 66.2869 6.10372 66.4418 6.26419C66.5833 6.41096 66.7783 6.48728 67.0059 6.48728H70.8876V6.74755C70.8876 7.00783 70.9641 7.21722 71.119 7.37573C71.272 7.52055 71.4613 7.59491 71.6869 7.59491C71.9126 7.59491 72.1038 7.52055 72.2587 7.37182L72.2606 7.37378Z" fill="#FF7D00"/>
</g>
<defs>
<clipPath id="clip0_63_848">
<rect width="146" height="16" fill="white"/>
</clipPath>
</defs>
</svg>
