<svg width="225" height="24" viewBox="0 0 225 24" fill="none" xmlns="http://www.w3.org/2000/svg">
<g clip-path="url(#clip0_63_617)">
<path d="M57.4022 0H63.3697V21.0147C63.3697 22.2153 62.6418 23.3014 61.5279 23.7593C61.1595 23.9119 60.7705 23.9853 60.3874 23.9853C59.6124 23.9853 58.9022 23.592 58.2774 23.1135L38.3772 8.78571V23.9971H32.4098V2.98532C32.4098 1.78474 33.1376 0.675147 34.2516 0.217221C35.3655 -0.24364 36.5118 0.146771 37.502 0.860078L57.4022 15.2113V0ZM93.637 11.2162C92.9475 10.5294 92.1459 9.99217 91.2501 9.6135C90.3218 9.22309 89.3375 9.03522 88.3268 9.03522H72.3871C71.5355 9.03522 70.8429 8.3454 70.8429 7.49706C70.8429 6.64873 71.5355 5.9589 72.3871 5.9589H91.2795C92.9268 5.9589 94.2618 4.62916 94.2618 2.98826C94.2618 1.34736 92.9268 0.0146771 91.2795 0.0146771H72.3871C71.3734 0.0146771 70.3891 0.214286 69.4638 0.604697C68.5679 0.98043 67.7664 1.52055 67.0768 2.20744C66.3873 2.89432 65.848 3.69276 65.4678 4.58513C65.0759 5.50978 64.8755 6.49022 64.8755 7.49706C64.8755 8.50391 65.0759 9.48728 65.4678 10.409C65.845 11.3014 66.3873 12.0998 67.0768 12.7867C67.7664 13.4736 68.5679 14.0108 69.4638 14.3894C70.3921 14.7798 71.3763 14.9795 72.3871 14.9795H88.3268V14.9706C89.1784 14.9706 89.868 15.6605 89.868 16.5059C89.868 17.3513 89.1755 18.0411 88.3268 18.0411H67.8607C66.2134 18.0411 64.8785 19.3708 64.8785 21.0117C64.8785 22.6526 66.2134 23.9824 67.8607 23.9824H88.3268C89.3405 23.9824 90.3218 23.7828 91.2501 23.3924C92.1459 23.0166 92.9475 22.4765 93.637 21.7896C94.3266 21.1027 94.8659 20.3043 95.246 19.4119C95.638 18.4873 95.8383 17.5068 95.8383 16.5C95.8383 15.4931 95.638 14.5127 95.246 13.5881C94.8688 12.6957 94.3266 11.8973 93.637 11.2104V11.2162ZM30.9894 12C30.9894 18.6282 25.5966 24 18.9425 24H0V0H18.9425C25.5966 0 30.9894 5.37182 30.9894 12ZM24.9954 12C24.9954 10.3885 24.3648 8.87671 23.2243 7.73777C22.081 6.59883 20.5604 5.97358 18.9455 5.97358H5.99395V18.0294H18.9396C20.5574 18.0294 22.0751 17.4012 23.2184 16.2652C24.3618 15.1262 24.9895 13.6115 24.9895 12.0029L24.9954 12Z" fill="#FF7D00"/>
<path d="M108.183 18.61C107.582 18.1433 106.757 17.9085 105.728 17.9085H104.49V16.5963H107.122C107.487 16.5963 107.791 16.4642 108 16.2235C108.203 16.0005 108.301 15.7421 108.301 15.431C108.301 15.1198 108.206 14.8586 108.012 14.6267C107.794 14.3889 107.493 14.2686 107.122 14.2686H103.312C102.946 14.2686 102.643 14.3742 102.398 14.5885C102.154 14.8175 102.03 15.1286 102.03 15.5102V22.749C102.03 23.1188 102.162 23.4388 102.419 23.6795C102.666 23.8938 102.97 24.0053 103.323 24.0053H105.958C106.925 24.0053 107.708 23.7382 108.286 23.2128C108.89 22.6756 109.197 21.9065 109.197 20.929C109.197 19.9515 108.858 19.1443 108.183 18.61ZM106.659 20.9055C106.659 21.1756 106.577 21.384 106.406 21.5279C106.232 21.6805 106.011 21.7568 105.728 21.7568H104.49V20.1599H105.575C106.53 20.1599 106.659 20.5357 106.659 20.9055Z" fill="#FF7D00"/>
<path d="M118.714 14.2622C118.369 14.2622 118.074 14.3708 117.833 14.5939C117.603 14.8229 117.485 15.134 117.485 15.5215V22.7368C117.485 23.1213 117.603 23.4354 117.841 23.6702C118.077 23.8875 118.372 23.9961 118.717 23.9961C119.061 23.9961 119.356 23.8845 119.598 23.6614C119.828 23.4325 119.945 23.1213 119.945 22.7338V15.5186C119.945 15.134 119.828 14.8199 119.589 14.5851C119.353 14.3679 119.061 14.2593 118.714 14.2593V14.2622Z" fill="#FF7D00"/>
<path d="M115.97 18.5689C115.369 18.0787 114.541 17.8292 113.509 17.8292H112.463V15.5396C112.463 15.1492 112.345 14.8351 112.107 14.5973C111.871 14.3801 111.576 14.2686 111.231 14.2686C110.887 14.2686 110.592 14.3801 110.35 14.6032C110.12 14.8351 110.002 15.1492 110.002 15.5367V22.7578C110.002 23.1247 110.135 23.4417 110.391 23.6795C110.639 23.8938 110.942 24.0024 111.296 24.0024H113.739C114.706 24.0024 115.49 23.7265 116.073 23.1864C116.674 22.6257 116.978 21.8537 116.978 20.8879C116.978 19.9222 116.639 19.1061 115.97 18.566V18.5689ZM114.44 20.8674C114.44 21.1433 114.352 21.3635 114.175 21.5337C114.016 21.6922 113.792 21.7744 113.509 21.7744H112.463V20.0631H113.356C113.724 20.0631 113.998 20.1423 114.193 20.3067C114.361 20.4476 114.44 20.6267 114.44 20.8674Z" fill="#FF7D00"/>
<path d="M127.262 14.6237C127.041 14.383 126.767 14.2686 126.425 14.2686H121.719C121.377 14.2686 121.103 14.386 120.882 14.6237C120.681 14.841 120.578 15.1081 120.578 15.4222C120.578 15.7363 120.667 15.9858 120.843 16.1942C121.047 16.4496 121.341 16.5758 121.719 16.5758H122.841V22.7314C122.841 23.1188 122.959 23.4359 123.198 23.6736C123.434 23.8909 123.728 24.0024 124.073 24.0024C124.418 24.0024 124.713 23.8909 124.954 23.6648C125.184 23.4329 125.302 23.1188 125.302 22.7314V16.5758H126.425C126.802 16.5758 127.097 16.4466 127.297 16.1971C127.477 15.9828 127.565 15.7275 127.565 15.4192C127.565 15.111 127.465 14.838 127.262 14.6208V14.6237Z" fill="#FF7D00"/>
<path d="M132.145 14.2686C130.784 14.2686 129.649 14.7441 128.774 15.6805C127.911 16.5905 127.475 17.7529 127.475 19.1384C127.475 20.5239 127.911 21.6717 128.774 22.5934C129.649 23.5298 130.784 24.0053 132.145 24.0053C133.507 24.0053 134.653 23.5298 135.531 22.5905C136.383 21.6658 136.816 20.5034 136.816 19.1355C136.816 17.7676 136.374 16.6345 135.505 15.7069C134.624 14.7529 133.495 14.2686 132.145 14.2686ZM130.56 17.292C130.952 16.7754 131.474 16.523 132.145 16.523C132.817 16.523 133.339 16.7754 133.731 17.292C134.093 17.7734 134.279 18.3958 134.279 19.1355C134.279 19.8752 134.099 20.521 133.743 20.9907C133.36 21.4985 132.835 21.7451 132.145 21.7451C131.456 21.7451 130.931 21.4985 130.548 20.9907C130.192 20.521 130.012 19.8958 130.012 19.1355C130.012 18.3752 130.198 17.7734 130.56 17.292Z" fill="#FF7D00"/>
<path d="M143.355 18.6247C143.891 18.1932 144.165 17.5856 144.165 16.8106C144.165 16.0357 143.897 15.428 143.373 14.9584C142.875 14.5005 142.241 14.2686 141.49 14.2686H139.035C138.669 14.2686 138.366 14.3742 138.121 14.5885C137.877 14.8175 137.753 15.1286 137.753 15.5102V22.749C137.753 23.1188 137.886 23.4359 138.142 23.6795C138.389 23.8938 138.693 24.0053 139.047 24.0053H141.681C142.648 24.0053 143.432 23.7382 144.009 23.2128C144.613 22.6756 144.92 21.9065 144.92 20.929C144.92 20.3067 144.708 19.7549 144.286 19.2881C144.018 18.9916 143.709 18.7686 143.355 18.6277V18.6247ZM142.382 20.8997C142.382 21.1697 142.3 21.3781 142.129 21.522C141.955 21.6776 141.734 21.7509 141.451 21.7509H140.214V20.1541H141.298C142.253 20.1541 142.382 20.5298 142.382 20.8997ZM140.214 17.9026V16.5142H140.941C141.174 16.5142 141.357 16.5699 141.498 16.6844C141.643 16.8018 141.705 16.9457 141.705 17.157C141.705 17.4065 141.643 17.5797 141.51 17.7059C141.366 17.841 141.186 17.9026 140.941 17.9026H140.214Z" fill="#FF7D00"/>
<path d="M153.666 22.3468L151.162 15.4926C150.882 14.6913 150.319 14.2686 149.538 14.2686C148.757 14.2686 148.229 14.6795 147.914 15.4897L145.33 22.3791L145.285 22.5171C145.253 22.6286 145.235 22.7431 145.235 22.8547C145.235 23.1893 145.365 23.477 145.61 23.6854C145.857 23.8967 146.14 24.0024 146.452 24.0024C147.036 24.0024 147.457 23.6971 147.631 23.1482L147.955 22.1619H151.117L151.441 23.1599C151.615 23.703 152.037 24.0024 152.632 24.0024C152.944 24.0024 153.213 23.9026 153.431 23.703C153.666 23.4858 153.787 23.2187 153.787 22.9016C153.787 22.8488 153.778 22.7813 153.758 22.6756C153.74 22.5582 153.708 22.4349 153.666 22.3439V22.3468ZM150.369 19.8899H148.683L149.535 17.3273L150.369 19.8899Z" fill="#FF7D00"/>
<path d="M160.085 14.2686H157.834C155.574 14.2686 154.377 15.3635 154.377 17.4329C154.377 18.1815 154.64 18.8067 155.152 19.294C155.503 19.6228 155.951 19.8635 156.49 20.0132L154.64 21.9946C154.424 22.2265 154.312 22.4848 154.312 22.7431C154.312 23.0689 154.43 23.3654 154.654 23.6061C155.011 23.9877 155.497 24.114 156.039 23.8967C156.172 23.838 156.364 23.7353 156.493 23.568L158.877 20.6766V22.7314C158.877 23.1188 158.995 23.4329 159.234 23.6707C159.47 23.8879 159.764 23.9995 160.109 23.9995C160.454 23.9995 160.748 23.8879 160.99 23.6648C161.22 23.4329 161.338 23.1188 161.338 22.7314V15.5396C161.338 14.7206 160.893 14.2715 160.082 14.2715L160.085 14.2686ZM157.156 16.8018C157.327 16.6492 157.551 16.5758 157.834 16.5758H158.88V18.2989H157.834C157.548 18.2989 157.33 18.2226 157.162 18.0641C156.997 17.9114 156.915 17.6971 156.915 17.43C156.915 17.1629 156.994 16.9427 157.156 16.8018Z" fill="#FF7D00"/>
<path d="M171.84 14.2622H167.134C166.792 14.2622 166.518 14.3796 166.297 14.6174C166.096 14.8346 165.993 15.1047 165.993 15.4158C165.993 15.727 166.082 15.9765 166.258 16.1878C166.462 16.4403 166.756 16.5695 167.134 16.5695H168.256V22.725C168.256 23.1125 168.374 23.4266 168.613 23.6673C168.849 23.8845 169.143 23.9961 169.488 23.9961C169.833 23.9961 170.128 23.8845 170.369 23.6585C170.599 23.4266 170.717 23.1125 170.717 22.725V16.5695H171.84C172.217 16.5695 172.512 16.4403 172.712 16.1908C172.892 15.9765 172.98 15.7211 172.98 15.4129C172.98 15.1047 172.877 14.8317 172.677 14.6145C172.456 14.3738 172.182 14.2593 171.84 14.2593V14.2622Z" fill="#FF7D00"/>
<path d="M178.14 21.6776H176.045V20.2627H177.872C178.244 20.2627 178.547 20.1365 178.774 19.8899C178.977 19.6668 179.075 19.4085 179.075 19.0973C179.075 18.7862 178.974 18.5132 178.771 18.293C178.556 18.0582 178.243 17.9349 177.869 17.9349H176.042V16.5963H178.022C178.394 16.5963 178.688 16.4701 178.898 16.2235C179.101 16.0005 179.198 15.7421 179.198 15.431C179.198 15.1198 179.104 14.8586 178.91 14.6267C178.691 14.3889 178.391 14.2686 178.02 14.2686H174.849C174.029 14.2686 173.582 14.7646 173.582 15.6629V22.7607C173.582 23.1247 173.705 23.4271 173.95 23.656C174.192 23.885 174.492 23.9995 174.837 23.9995H178.137C178.503 23.9995 178.809 23.8674 179.016 23.6267C179.219 23.4036 179.316 23.1453 179.316 22.8341C179.316 22.523 179.222 22.2617 179.027 22.0298C178.809 21.792 178.509 21.6717 178.137 21.6717L178.14 21.6776Z" fill="#FF7D00"/>
<path d="M187.81 22.0357L185.397 18.8155L187.345 16.1883C187.516 15.9711 187.607 15.7216 187.607 15.4633C187.607 15.0963 187.48 14.7999 187.239 14.5944C187.003 14.3772 186.708 14.2686 186.363 14.2686C185.936 14.2686 185.571 14.4711 185.311 14.8527L183.947 16.7754L182.585 14.8556C182.323 14.4711 181.958 14.2686 181.531 14.2686C181.186 14.2686 180.891 14.3772 180.661 14.5885C180.414 14.8028 180.287 15.0963 180.287 15.4662C180.287 15.7245 180.378 15.974 180.543 16.1854L182.497 18.8214L180.081 22.0445C179.992 22.1648 179.945 22.2852 179.91 22.3821C179.848 22.5376 179.815 22.6991 179.815 22.8488C179.815 23.1981 179.942 23.4858 180.184 23.6942C180.411 23.9026 180.702 24.0083 181.059 24.0083C181.469 24.0083 181.816 23.8234 182.073 23.477L183.95 20.885L185.827 23.4799C186.08 23.8263 186.431 24.0112 186.838 24.0112C187.189 24.0112 187.477 23.9114 187.725 23.6971C187.961 23.4799 188.081 23.1952 188.081 22.8517C188.081 22.7196 188.058 22.5729 187.999 22.3879C187.955 22.2676 187.893 22.159 187.81 22.0416V22.0357Z" fill="#FF7D00"/>
<path d="M195.96 14.2651C195.615 14.2651 195.321 14.3738 195.079 14.5969C194.849 14.8258 194.731 15.137 194.731 15.5244V17.9491H191.257V15.5244C191.257 15.137 191.139 14.8258 190.9 14.591C190.665 14.3738 190.37 14.2651 190.025 14.2651C189.68 14.2651 189.386 14.3738 189.144 14.5969C188.914 14.8258 188.796 15.137 188.796 15.5244V22.7397C188.796 23.1242 188.914 23.4383 189.153 23.6732C189.389 23.8904 189.683 23.999 190.028 23.999C190.373 23.999 190.668 23.8904 190.909 23.6644C191.139 23.4354 191.257 23.1242 191.257 22.7368V20.2358H194.731V22.7368C194.731 23.1213 194.849 23.4354 195.088 23.6702C195.324 23.8875 195.618 23.9961 195.963 23.9961C196.308 23.9961 196.603 23.8875 196.844 23.6614C197.074 23.4325 197.192 23.1213 197.192 22.7338V15.5186C197.192 15.1311 197.074 14.8199 196.835 14.5851C196.6 14.3679 196.305 14.2593 195.96 14.2593V14.2651Z" fill="#FF7D00"/>
<path d="M205.7 14.2686C205.294 14.2686 204.952 14.4447 204.681 14.794L200.997 19.5699V15.5279C200.997 15.1433 200.879 14.8292 200.641 14.5944C200.405 14.3772 200.11 14.2686 199.765 14.2686C199.421 14.2686 199.126 14.3772 198.884 14.6003C198.655 14.8292 198.537 15.1404 198.537 15.5279V22.7431C198.537 23.1277 198.655 23.4388 198.893 23.6766C199.129 23.8938 199.424 24.0024 199.768 24.0024C200.175 24.0024 200.517 23.8263 200.788 23.4799L204.472 18.7597V22.7461C204.472 23.1306 204.59 23.4417 204.828 23.6795C205.064 23.8967 205.359 24.0053 205.703 24.0053C206.048 24.0053 206.343 23.8967 206.585 23.6707C206.814 23.4417 206.932 23.1306 206.932 22.7431V15.5279C206.932 15.1433 206.814 14.8292 206.576 14.5944C206.34 14.3772 206.045 14.2686 205.7 14.2686Z" fill="#FF7D00"/>
<path d="M212.628 18.8429L214.856 16.6648C215.337 16.1863 215.561 15.8047 215.561 15.4584C215.561 15.112 215.434 14.8361 215.18 14.6012C214.794 14.2431 214.258 14.155 213.754 14.431C213.61 14.522 213.495 14.613 213.406 14.7157L210.728 17.5454V15.4818C210.728 15.112 210.607 14.8155 210.371 14.5983C210.135 14.3811 209.841 14.2725 209.496 14.2725C209.151 14.2725 208.836 14.3957 208.615 14.6306C208.385 14.8595 208.267 15.1472 208.267 15.4818V22.8204C208.267 23.1726 208.388 23.4603 208.624 23.6775C208.859 23.8948 209.154 24.0034 209.499 24.0034C209.844 24.0034 210.15 23.886 210.38 23.657C210.61 23.428 210.728 23.1462 210.728 22.8204V20.2695L213.571 23.3224C213.999 23.7744 214.391 24.0034 214.741 24.0034C215.092 24.0034 215.366 23.9124 215.602 23.7274C215.873 23.5102 216.009 23.2167 216.009 22.8586C216.009 22.5004 215.802 22.1247 215.396 21.7079L212.626 18.84L212.628 18.8429Z" fill="#FF7D00"/>
<path d="M224.97 22.6785C224.952 22.5611 224.92 22.4378 224.882 22.3468L222.377 15.4926C222.097 14.6913 221.534 14.2686 220.753 14.2686C219.972 14.2686 219.445 14.6795 219.129 15.4897L216.545 22.3791L216.501 22.5171C216.468 22.6286 216.451 22.7431 216.451 22.8547C216.451 23.1893 216.58 23.477 216.825 23.6854C217.072 23.8967 217.355 24.0024 217.668 24.0024C218.251 24.0024 218.67 23.6971 218.846 23.1482L219.171 22.1619H222.333L222.657 23.1599C222.831 23.703 223.252 24.0024 223.847 24.0024C224.16 24.0024 224.428 23.9026 224.646 23.703C224.882 23.4887 225.003 23.2187 225.003 22.9016C225.003 22.8459 224.994 22.7783 224.973 22.6756L224.97 22.6785ZM221.581 19.8899H219.896L220.747 17.3273L221.581 19.8899Z" fill="#FF7D00"/>
<path d="M120.761 1.2593C120.761 0.87182 120.643 0.560665 120.404 0.325832C120.169 0.108611 119.874 0 119.529 0C119.122 0 118.781 0.176125 118.509 0.52544L114.826 5.30137V1.2593C114.826 0.87182 114.708 0.560665 114.469 0.325832C114.234 0.108611 113.939 0 113.594 0C113.249 0 112.955 0.108611 112.713 0.331703C112.483 0.560665 112.365 0.87182 112.365 1.2593V8.47456C112.365 8.8591 112.483 9.17319 112.722 9.40802C112.958 9.62524 113.252 9.73385 113.597 9.73385C114.004 9.73385 114.346 9.55773 114.617 9.21135L118.3 4.49119V8.47749C118.3 8.86203 118.418 9.17613 118.657 9.41096C118.893 9.62818 119.187 9.73679 119.532 9.73679C119.877 9.73679 120.172 9.62818 120.413 9.40509C120.643 9.17612 120.761 8.86497 120.761 8.47749V1.2593Z" fill="#FF7D00"/>
<path d="M125.116 8.6218C125.225 8.6218 125.393 8.61006 125.6 8.58071C125.653 8.57483 125.703 8.56603 125.756 8.56016C125.771 8.90947 125.888 9.19421 126.109 9.41437C126.345 9.63159 126.64 9.7402 126.985 9.7402C127.329 9.7402 127.624 9.63159 127.866 9.40849C128.081 9.19421 128.196 8.90947 128.211 8.56016C128.264 8.56896 128.314 8.57483 128.367 8.58364C128.573 8.61006 128.738 8.62474 128.85 8.62474C129.873 8.62474 130.73 8.24313 131.405 7.4946C132.062 6.77249 132.395 5.88012 132.395 4.83804C132.395 3.79597 132.068 2.8948 131.42 2.16975C130.745 1.41828 129.881 1.03961 128.853 1.03961C128.744 1.03961 128.579 1.05135 128.373 1.07777C128.317 1.08071 128.261 1.08658 128.205 1.09245C128.172 0.787164 128.06 0.534718 127.86 0.335109C127.624 0.117888 127.332 0.00927734 126.985 0.00927734C126.637 0.00927734 126.345 0.117888 126.104 0.34098C125.909 0.534718 125.794 0.787164 125.765 1.09245C125.715 1.08658 125.662 1.08071 125.614 1.07777C125.393 1.05135 125.228 1.03667 125.119 1.03667C124.088 1.03667 123.224 1.41828 122.553 2.16975C121.904 2.8948 121.577 3.79303 121.577 4.83804C121.577 5.88305 121.916 6.78129 122.579 7.4946C123.254 8.24607 124.109 8.62474 125.122 8.62474L125.116 8.6218ZM124.109 4.83511C124.109 4.39773 124.253 4.03961 124.551 3.74607C124.845 3.46427 125.187 3.3263 125.591 3.3263C125.641 3.3263 125.7 3.33511 125.8 3.34685L125.806 6.29695C125.694 6.3263 125.629 6.33217 125.591 6.33217C125.178 6.33217 124.839 6.20008 124.551 5.92415C124.259 5.64235 124.109 5.27836 124.109 4.83511ZM128.163 6.29695V3.34979H128.172C128.246 3.33804 128.317 3.3263 128.379 3.3263C128.782 3.3263 129.124 3.46427 129.416 3.74313C129.716 4.03961 129.861 4.39773 129.861 4.83511C129.861 5.27249 129.713 5.64528 129.419 5.92415C129.133 6.19714 128.791 6.33217 128.379 6.33217C128.317 6.33217 128.267 6.32337 128.181 6.29988H128.163V6.29695Z" fill="#FF7D00"/>
<path d="M140.294 3.3317C140.294 2.35127 139.949 1.53816 139.272 0.915851C138.609 0.308219 137.76 0 136.749 0H134.486C133.667 0 133.219 0.452055 133.219 1.27104V8.46575C133.219 8.85323 133.337 9.16732 133.575 9.40802C133.811 9.62524 134.106 9.73679 134.451 9.73679C134.795 9.73679 135.09 9.62524 135.332 9.40215C135.562 9.17025 135.679 8.85616 135.679 8.46869V6.63992H136.829C137.813 6.63992 138.609 6.34931 139.26 5.75049C139.946 5.13405 140.297 4.32094 140.297 3.33464L140.294 3.3317ZM137.757 3.31996C137.757 3.64873 137.666 3.90117 137.468 4.09785C137.282 4.30626 137.032 4.40607 136.711 4.40607H135.676V2.23386H136.711C137.032 2.23386 137.282 2.33072 137.474 2.53327C137.669 2.73875 137.757 2.98826 137.757 3.31996Z" fill="#FF7D00"/>
<path d="M145.44 9.73679C146.807 9.73679 147.948 9.26125 148.826 8.32192C149.677 7.39726 150.111 6.23483 150.111 4.86693C150.111 3.49902 149.669 2.36595 148.799 1.43836C147.918 0.484344 146.79 0 145.44 0C144.09 0 142.944 0.475538 142.069 1.41194C141.205 2.32192 140.769 3.48434 140.769 4.86986C140.769 6.25538 141.205 7.40313 142.069 8.32485C142.944 9.26125 144.078 9.73679 145.44 9.73679ZM143.854 3.02642C144.249 2.50978 144.768 2.25734 145.44 2.25734C146.112 2.25734 146.633 2.50978 147.025 3.02642C147.388 3.50783 147.573 4.13014 147.573 4.86986C147.573 5.60959 147.394 6.25538 147.037 6.72505C146.654 7.23288 146.129 7.47945 145.44 7.47945C144.75 7.47945 144.226 7.23288 143.843 6.72505C143.486 6.25538 143.306 5.63014 143.306 4.86986C143.306 4.10959 143.492 3.50783 143.854 3.02642Z" fill="#FF7D00"/>
<path d="M152.341 9.73386H154.975C155.942 9.73386 156.726 9.46673 157.303 8.94129C157.907 8.40411 158.214 7.63503 158.214 6.65753C158.214 6.03523 158.002 5.48337 157.58 5.01663C157.312 4.72016 157.003 4.49706 156.649 4.35616C157.185 3.92466 157.459 3.31703 157.459 2.54207C157.459 1.76712 157.191 1.15949 156.667 0.689824C156.169 0.231898 155.535 0 154.784 0H152.329C151.963 0 151.66 0.105675 151.415 0.319961C151.171 0.548924 151.047 0.860078 151.047 1.24168V8.48043C151.047 8.85029 151.179 9.17026 151.436 9.41096C151.683 9.62525 151.987 9.73679 152.341 9.73679V9.73386ZM153.508 7.48532V5.88845H154.592C155.547 5.88845 155.676 6.26419 155.676 6.63405C155.676 6.90411 155.594 7.11252 155.423 7.25636C155.249 7.409 155.028 7.48532 154.745 7.48532H153.508ZM153.508 3.63992V2.25147H154.235C154.468 2.25147 154.651 2.30724 154.792 2.42172C154.937 2.53914 154.999 2.68591 154.999 2.89432C154.999 3.14384 154.937 3.31703 154.804 3.44325C154.663 3.57828 154.48 3.63992 154.235 3.63992H153.508Z" fill="#FF7D00"/>
<path d="M167.069 8.63601C167.069 8.58023 167.06 8.51272 167.039 8.40998C167.022 8.29256 166.989 8.16928 166.951 8.07828L164.446 1.22407C164.166 0.422701 163.603 0 162.822 0C162.042 0 161.514 0.410959 161.199 1.22113L158.614 8.11057L158.57 8.24853C158.538 8.36008 158.52 8.47456 158.52 8.58611C158.52 8.92074 158.65 9.20841 158.894 9.41683C159.142 9.62818 159.425 9.73385 159.737 9.73385C160.321 9.73385 160.739 9.43151 160.916 8.87965L161.24 7.89041H164.402L164.726 8.88845C164.9 9.43151 165.321 9.73092 165.917 9.73092C166.229 9.73092 166.497 9.63112 166.715 9.43151C166.951 9.21722 167.072 8.94716 167.072 8.63014L167.069 8.63601ZM163.653 5.62133H161.968L162.82 3.05871L163.653 5.62133Z" fill="#FF7D00"/>
<path d="M174.635 8.46282V1.2681C174.635 0.449119 174.19 0 173.379 0H171.128C168.868 0 167.671 1.09491 167.671 3.16438C167.671 3.91292 167.934 4.53816 168.446 5.02544C168.797 5.35421 169.245 5.59491 169.784 5.74462L167.934 7.72603C167.718 7.95793 167.606 8.21624 167.606 8.47456C167.606 8.80039 167.724 9.09687 167.948 9.33757C168.305 9.71918 168.788 9.8454 169.333 9.62818C169.466 9.56947 169.655 9.46673 169.787 9.29941L172.171 6.40802V8.46282C172.171 8.85029 172.289 9.16438 172.528 9.40215C172.763 9.61937 173.058 9.73092 173.403 9.73092C173.748 9.73092 174.042 9.61937 174.284 9.39628C174.514 9.16438 174.632 8.85029 174.632 8.46282H174.635ZM170.45 2.5362C170.621 2.38356 170.845 2.31018 171.128 2.31018H172.174V4.03327H171.128C170.842 4.03327 170.624 3.95695 170.456 3.79843C170.291 3.64286 170.209 3.43151 170.209 3.16438C170.209 2.89726 170.291 2.6771 170.45 2.5362Z" fill="#FF7D00"/>
<path d="M187.181 0C186.774 0 186.432 0.176125 186.161 0.52544L182.478 5.30137V1.2593C182.478 0.874755 182.36 0.560665 182.121 0.325832C181.885 0.108611 181.591 0 181.246 0C180.901 0 180.606 0.108611 180.365 0.331703C180.135 0.560665 180.017 0.87182 180.017 1.2593V8.47456C180.017 8.8591 180.135 9.17025 180.374 9.40802C180.609 9.62524 180.904 9.73385 181.249 9.73385C181.656 9.73385 181.997 9.55773 182.269 9.21135L185.952 4.49119V8.47749C185.952 8.86203 186.07 9.17319 186.309 9.41096C186.544 9.62818 186.839 9.73679 187.184 9.73679C187.529 9.73679 187.823 9.62818 188.065 9.40215C188.295 9.17319 188.413 8.86203 188.413 8.47456V1.2593C188.413 0.874755 188.295 0.560665 188.056 0.325832C187.82 0.108611 187.526 0 187.181 0Z" fill="#FF7D00"/>
<path d="M111.357 11.0607C111.587 10.8288 111.704 10.5147 111.704 10.1272V8.77397C111.704 8.39237 111.584 8.07828 111.345 7.84051C111.127 7.62035 110.826 7.50587 110.476 7.50587H110.425V1.27104C110.425 0.883562 110.308 0.566536 110.069 0.328767C109.833 0.111546 109.538 0 109.194 0C108.849 0 108.554 0.111546 108.313 0.334638C108.083 0.566536 107.965 0.880626 107.965 1.2681V7.50294H104.49V1.27104C104.49 0.883562 104.373 0.566536 104.134 0.328767C103.898 0.111546 103.603 0 103.259 0C102.914 0 102.619 0.111546 102.378 0.334638C102.148 0.566536 102.03 0.880626 102.03 1.2681V8.46282C102.03 8.84149 102.151 9.15558 102.389 9.39628C102.607 9.61644 102.908 9.73092 103.259 9.73092H109.241V10.1213C109.241 10.5117 109.359 10.8258 109.597 11.0636C109.833 11.2808 110.125 11.3924 110.473 11.3924C110.82 11.3924 111.115 11.2808 111.354 11.0577L111.357 11.0607Z" fill="#FF7D00"/>
</g>
<defs>
<clipPath id="clip0_63_617">
<rect width="225" height="24" fill="white"/>
</clipPath>
</defs>
</svg>
