<svg width="82" height="17" viewBox="0 0 82 17" fill="none" xmlns="http://www.w3.org/2000/svg">
<g clip-path="url(#clip0_28_884)">
<path d="M26.36 9.06146L27.1832 14.1615H29.9429C30.204 14.1615 30.4331 13.9889 30.5004 13.7415L33.4802 2.82812H30.4908L28.7886 9.06146H26.3594H26.36Z" fill="white"/>
<path d="M26.1748 7.92812L25.3516 2.82812H22.592C22.3308 2.82812 22.1018 3.00064 22.0344 3.24809L19.0547 14.1615H22.044L23.7463 7.92812H26.1755H26.1748Z" fill="white"/>
<path d="M54.508 2.82812L50.1212 11.2759L49.2704 3.33561C49.2396 3.04724 48.9919 2.82812 48.6961 2.82812H46.3125L47.5265 14.1615H51.509C51.7266 14.1615 51.9248 14.0418 52.0236 13.8523L57.7476 2.82812H54.5074H54.508Z" fill="white"/>
<path d="M59.5735 3.24809L56.5938 14.1615H64.6051C64.8663 14.1615 65.0953 13.9889 65.1627 13.7415L65.7908 11.4415H60.3255L60.774 9.79812H65.3642C65.6253 9.79812 65.8544 9.62561 65.9217 9.37816L66.5499 7.07812H61.517L61.9347 5.54812H66.9573C67.2185 5.54812 67.4475 5.37561 67.5149 5.12816L68.143 2.82812H60.1317C59.8705 2.82812 59.6415 3.00064 59.5741 3.24809" fill="white"/>
<path d="M70.5422 3.24809L67.5625 14.1615H75.5739C75.835 14.1615 76.0641 13.9889 76.1314 13.7415L76.7596 11.4415H71.2942L71.7427 9.79812H76.3329C76.594 9.79812 76.8231 9.62561 76.8905 9.37816L77.5186 7.07812H72.4857L72.9034 5.54812H77.9261C78.1872 5.54812 78.4163 5.37561 78.4836 5.12816L79.1118 2.82812H71.1004C70.8393 2.82812 70.6102 3.00064 70.5429 3.24809" fill="white"/>
<path d="M44.5378 14.1615L43.3238 2.82812H39.0037L32.3359 14.1615H35.3368C35.5434 14.1615 35.734 14.0538 35.8367 13.8781L40.7156 5.58527L41.3431 11.4415H39.467C39.2604 11.4415 39.0698 11.5498 38.9672 11.7248L37.5338 14.1615H44.5384H44.5378Z" fill="white"/>
<path d="M9.77875 15.6753L8.98698 10.7686V10.7673L8.81887 9.72652C8.77845 9.47782 8.97479 9.25241 9.23144 9.25241H11.6465C11.8358 9.25241 12.0013 9.12774 12.0501 8.9483L13.9994 1.80893C12.5275 0.676852 10.6757 0 8.66103 0C8.16955 0 7.68897 0.0421852 7.21994 0.119L7.41243 1.30648C7.41371 1.31278 7.41628 1.31782 7.41692 1.32411L8.37743 7.27348C8.41786 7.52219 8.22152 7.74759 7.96487 7.74759H5.54978C5.3605 7.74759 5.19496 7.87226 5.1462 8.0517L3.21875 15.1105C4.70604 16.291 6.59884 16.9994 8.66103 16.9994C9.11274 16.9994 9.5561 16.9654 9.9892 16.8999L9.80249 15.759C9.79158 15.7326 9.78324 15.7042 9.77875 15.6753Z" fill="white"/>
<path d="M17.3269 8.50013C17.3269 7.55758 17.1685 6.65217 16.8797 5.80469L14.4062 14.8625C16.197 13.3055 17.3269 11.0331 17.3269 8.50013Z" fill="white"/>
<path d="M0 8.50162C0 9.36736 0.132817 10.2022 0.377919 10.9887L2.75322 2.28906C1.05997 3.84047 0 6.04858 0 8.50162Z" fill="white"/>
<path d="M81.3856 3.42804C81.3856 3.35753 81.3586 3.30464 81.3047 3.26938C81.2579 3.24104 81.1931 3.22656 81.1103 3.22656C81.0776 3.22656 81.0455 3.22908 81.0128 3.23223C80.9878 3.23538 80.9679 3.23916 80.9531 3.24293V3.62449H81.1308C81.2098 3.62449 81.2714 3.60497 81.3144 3.56593C81.3612 3.53067 81.3843 3.48471 81.3843 3.42804" fill="white"/>
<path d="M81.1318 2.82812C80.6532 2.82812 80.2656 3.20842 80.2656 3.67813C80.2656 4.14783 80.6532 4.5275 81.1318 4.5275C81.6105 4.5275 81.998 4.14783 81.998 3.67813C81.998 3.20842 81.6105 2.82812 81.1318 2.82812ZM81.4058 4.2385C81.3878 4.21331 81.3622 4.12516 81.3269 3.97531C81.2916 3.82042 81.2043 3.7562 81.0638 3.74675H80.9515V4.2385H80.8238V3.14231C80.9072 3.12531 80.999 3.11713 81.1004 3.11713C81.2492 3.11713 81.3583 3.14924 81.4289 3.21346C81.4815 3.26572 81.5078 3.32994 81.5078 3.40738C81.5078 3.5585 81.4308 3.65483 81.2781 3.69764V3.70457C81.3654 3.73479 81.425 3.81035 81.4558 3.93061C81.4956 4.09746 81.5258 4.20135 81.5482 4.23913H81.4071L81.4058 4.2385Z" fill="white"/>
</g>
<defs>
<clipPath id="clip0_28_884">
<rect width="82" height="17" fill="white"/>
</clipPath>
</defs>
</svg>
