<svg width="146" height="31" viewBox="0 0 146 31" fill="none" xmlns="http://www.w3.org/2000/svg">
<g clip-path="url(#clip0_28_654)">
<path d="M46.9308 16.5307L48.3965 25.8307H53.31C53.775 25.8307 54.1828 25.5161 54.3028 25.0649L59.6082 5.16406H54.2857L51.2548 16.5307H46.9297H46.9308Z" fill="white"/>
<path d="M46.607 14.4641L45.1413 5.16406H40.2278C39.7628 5.16406 39.355 5.47865 39.235 5.92988L33.9297 25.8307H39.2522L42.283 14.4641H46.6082H46.607Z" fill="white"/>
<path d="M97.0451 5.16406L89.2345 20.5688L87.7196 6.08947C87.6648 5.56362 87.2238 5.16406 86.6972 5.16406H82.4531L84.6146 25.8307H91.7055C92.0928 25.8307 92.4458 25.6126 92.6217 25.267L102.813 5.16406H97.044H97.0451Z" fill="white"/>
<path d="M106.063 5.92988L100.758 25.8307H115.022C115.487 25.8307 115.895 25.5161 116.015 25.0649L117.133 20.8707H107.402L108.201 17.8741H116.373C116.838 17.8741 117.246 17.5595 117.366 17.1082L118.485 12.9141H109.524L110.267 10.1241H119.21C119.675 10.1241 120.083 9.80947 120.203 9.35825L121.321 5.16406H107.057C106.592 5.16406 106.184 5.47865 106.064 5.92988" fill="white"/>
<path d="M125.602 5.92988L120.297 25.8307H134.561C135.026 25.8307 135.434 25.5161 135.554 25.0649L136.672 20.8707H126.941L127.74 17.8741H135.912C136.377 17.8741 136.785 17.5595 136.905 17.1082L138.024 12.9141H129.063L129.806 10.1241H138.749C139.214 10.1241 139.622 9.80947 139.742 9.35825L140.86 5.16406H126.596C126.131 5.16406 125.723 5.47865 125.603 5.92988" fill="white"/>
<path d="M79.3033 25.8307L77.1419 5.16406H69.45L57.5781 25.8307H62.9212C63.289 25.8307 63.6283 25.6344 63.8111 25.3141L72.498 10.1918L73.6153 20.8707H70.2749C69.907 20.8707 69.5677 21.0682 69.3849 21.3874L66.8328 25.8307H79.3045H79.3033Z" fill="white"/>
<path d="M17.4144 28.5843L16.0046 19.6368V19.6345L15.7053 17.7366C15.6334 17.2831 15.9829 16.872 16.4399 16.872H20.7399C21.0769 16.872 21.3717 16.6447 21.4585 16.3175L24.9291 3.29863C22.3085 1.23426 19.0115 0 15.4243 0C14.5492 0 13.6935 0.0769259 12.8584 0.217L13.2012 2.38241C13.2035 2.39389 13.208 2.40307 13.2092 2.41456L14.9194 13.2634C14.9913 13.7169 14.6417 14.128 14.1848 14.128H9.88475C9.54774 14.128 9.253 14.3553 9.16617 14.6825L5.73438 27.5544C8.38248 29.7072 11.7526 30.9989 15.4243 30.9989C16.2286 30.9989 17.018 30.9369 17.7891 30.8174L17.4566 28.737C17.4372 28.6888 17.4224 28.6371 17.4144 28.5843Z" fill="white"/>
<path d="M30.8487 15.5012C30.8487 13.7824 30.5665 12.1313 30.0524 10.5859L25.6484 27.1032C28.8369 24.2638 30.8487 20.1202 30.8487 15.5012Z" fill="white"/>
<path d="M0 15.5007C0 17.0794 0.236479 18.6018 0.67288 20.0358L4.90208 4.17188C1.88726 7.00091 0 11.0275 0 15.5007Z" fill="white"/>
<path d="M144.903 6.25803C144.903 6.12944 144.855 6.033 144.759 5.9687C144.675 5.91703 144.56 5.89062 144.413 5.89062C144.354 5.89062 144.297 5.89522 144.239 5.90096C144.194 5.9067 144.159 5.91359 144.133 5.92048V6.61625H144.449C144.59 6.61625 144.699 6.58066 144.776 6.50948C144.859 6.44518 144.901 6.36137 144.901 6.25803" fill="white"/>
<path d="M144.456 5.16406C143.604 5.16406 142.914 5.85754 142.914 6.71406C142.914 7.57058 143.604 8.26291 144.456 8.26291C145.309 8.26291 145.999 7.57058 145.999 6.71406C145.999 5.85754 145.309 5.16406 144.456 5.16406ZM144.944 7.73591C144.912 7.68999 144.866 7.52925 144.804 7.25599C144.741 6.97354 144.585 6.85643 144.335 6.83921H144.135V7.73591H143.908V5.73699C144.056 5.70599 144.22 5.69106 144.4 5.69106C144.665 5.69106 144.86 5.74962 144.985 5.86673C145.079 5.96203 145.126 6.07914 145.126 6.22036C145.126 6.49591 144.989 6.67158 144.717 6.74966V6.76228C144.872 6.8174 144.978 6.95517 145.033 7.17447C145.104 7.47873 145.158 7.66817 145.198 7.73706H144.946L144.944 7.73591Z" fill="white"/>
</g>
<defs>
<clipPath id="clip0_28_654">
<rect width="146" height="31" fill="white"/>
</clipPath>
</defs>
</svg>
