<svg width="183" height="38" viewBox="0 0 183 38" fill="none" xmlns="http://www.w3.org/2000/svg">
<g clip-path="url(#clip0_1_261)">
<path d="M58.8296 20.2693L60.6667 31.6693H66.8254C67.4082 31.6693 67.9194 31.2836 68.0698 30.7305L74.7196 6.33594H68.0483L64.2494 20.2693H58.8281H58.8296Z" fill="black"/>
<path d="M58.4213 17.7359L56.5842 6.33594H50.4255C49.8427 6.33594 49.3315 6.72157 49.1811 7.27468L42.5312 31.6693H49.2026L53.0015 17.7359H58.4227H58.4213Z" fill="black"/>
<path d="M121.642 6.33594L111.851 25.2191L109.953 7.47031C109.884 6.82572 109.331 6.33594 108.671 6.33594H103.352L106.061 31.6693H114.949C115.434 31.6693 115.877 31.4019 116.097 30.9782L128.871 6.33594H121.64H121.642Z" fill="black"/>
<path d="M132.947 7.27468L126.297 31.6693H144.176C144.759 31.6693 145.27 31.2836 145.42 30.7305L146.822 25.5893H134.625L135.626 21.9159H145.87C146.453 21.9159 146.964 21.5303 147.114 20.9772L148.516 15.8359H137.284L138.216 12.4159H149.425C150.008 12.4159 150.519 12.0303 150.67 11.4772L152.072 6.33594H134.193C133.61 6.33594 133.099 6.72157 132.948 7.27468" fill="black"/>
<path d="M157.431 7.27468L150.781 31.6693H168.66C169.243 31.6693 169.754 31.2836 169.905 30.7305L171.306 25.5893H159.109L160.11 21.9159H170.354C170.937 21.9159 171.448 21.5303 171.599 20.9772L173 15.8359H161.768L162.701 12.4159H173.91C174.492 12.4159 175.004 12.0303 175.154 11.4772L176.556 6.33594H158.677C158.094 6.33594 157.583 6.72157 157.433 7.27468" fill="black"/>
<path d="M99.395 31.6693L96.6858 6.33594H87.0446L72.1641 31.6693H78.8612C79.3223 31.6693 79.7475 31.4286 79.9766 31.0359L90.865 12.499L92.2654 25.5893H88.0785C87.6174 25.5893 87.1921 25.8313 86.963 26.2226L83.7641 31.6693H99.3964H99.395Z" fill="black"/>
<path d="M21.8275 35.0388L20.0605 24.0709V24.0681L19.6853 21.7416C19.5951 21.1857 20.0333 20.6819 20.6061 20.6819H25.9958C26.4183 20.6819 26.7877 20.4032 26.8965 20.0021L31.2467 4.04348C27.9619 1.51296 23.8293 0 19.3331 0C18.2362 0 17.1637 0.0942963 16.117 0.266L16.5466 2.92037C16.5494 2.93444 16.5552 2.9457 16.5566 2.95978L18.7002 16.2584C18.7904 16.8143 18.3522 17.3181 17.7794 17.3181H12.3897C11.9673 17.3181 11.5978 17.5968 11.489 17.9979L7.1875 33.7764C10.5067 36.4153 14.7309 37.9986 19.3331 37.9986C20.3412 37.9986 21.3306 37.9226 22.2972 37.7762L21.8805 35.226C21.8561 35.1669 21.8375 35.1036 21.8275 35.0388Z" fill="black"/>
<path d="M38.6587 19.0017C38.6587 16.8948 38.3051 14.8709 37.6607 12.9766L32.1406 33.2235C36.1371 29.743 38.6587 24.6637 38.6587 19.0017Z" fill="black"/>
<path d="M0 18.9963C0 20.9314 0.296408 22.7977 0.843404 24.5555L6.14439 5.10938C2.36554 8.57723 0 13.513 0 18.9963Z" fill="black"/>
<path d="M181.629 7.67693C181.629 7.5193 181.569 7.40108 181.449 7.32227C181.344 7.25893 181.2 7.22656 181.015 7.22656C180.942 7.22656 180.87 7.23219 180.797 7.23923C180.741 7.24627 180.697 7.25471 180.664 7.26316V8.11604H181.061C181.237 8.11604 181.374 8.07241 181.47 7.98515C181.575 7.90634 181.626 7.8036 181.626 7.67693" fill="black"/>
<path d="M181.066 6.33594C179.998 6.33594 179.133 7.18601 179.133 8.23594C179.133 9.28586 179.998 10.1345 181.066 10.1345C182.134 10.1345 182.999 9.28586 182.999 8.23594C182.999 7.18601 182.134 6.33594 181.066 6.33594ZM181.677 9.48853C181.637 9.43223 181.58 9.2352 181.501 8.90023C181.422 8.55401 181.228 8.41046 180.914 8.38934H180.664V9.48853H180.379V7.03823C180.565 7.00023 180.77 6.98194 180.996 6.98194C181.328 6.98194 181.571 7.05372 181.729 7.19727C181.846 7.31409 181.905 7.45764 181.905 7.63075C181.905 7.96853 181.733 8.18386 181.392 8.27957V8.29505C181.587 8.3626 181.72 8.53149 181.789 8.80031C181.878 9.17327 181.945 9.40549 181.995 9.48994H181.68L181.677 9.48853Z" fill="black"/>
</g>
<defs>
<clipPath id="clip0_1_261">
<rect width="183" height="38" fill="white"/>
</clipPath>
</defs>
</svg>
