<svg width="183" height="38" viewBox="0 0 183 38" fill="none" xmlns="http://www.w3.org/2000/svg">
<g clip-path="url(#clip0_1_231)">
<path d="M58.8278 20.2666L60.6649 31.6666H66.8237C67.4064 31.6666 67.9176 31.281 68.068 30.7278L74.7179 6.33325H68.0465L64.2476 20.2666H58.8264H58.8278Z" fill="white"/>
<path d="M58.4197 17.7333L56.5825 6.33325H50.4238C49.841 6.33325 49.3298 6.71888 49.1795 7.27199L42.5296 31.6666H49.2009L52.9998 17.7333H58.4211H58.4197Z" fill="white"/>
<path d="M121.641 6.33325L111.851 25.2164L109.952 7.46762C109.883 6.82303 109.33 6.33325 108.67 6.33325H103.351L106.06 31.6666H114.948C115.433 31.6666 115.876 31.3992 116.096 30.9755L128.87 6.33325H121.639H121.641Z" fill="white"/>
<path d="M132.946 7.27199L126.296 31.6666H144.175C144.758 31.6666 145.269 31.281 145.419 30.7278L146.821 25.5866H134.624L135.625 21.9133H145.869C146.452 21.9133 146.963 21.5276 147.113 20.9745L148.515 15.8333H137.283L138.215 12.4133H149.424C150.007 12.4133 150.518 12.0276 150.669 11.4745L152.07 6.33325H134.191C133.609 6.33325 133.097 6.71888 132.947 7.27199" fill="white"/>
<path d="M157.432 7.27199L150.782 31.6666H168.661C169.243 31.6666 169.755 31.281 169.905 30.7278L171.307 25.5866H159.11L160.111 21.9133H170.355C170.937 21.9133 171.449 21.5276 171.599 20.9745L173.001 15.8333H161.769L162.701 12.4133H173.91C174.493 12.4133 175.004 12.0276 175.154 11.4745L176.556 6.33325H158.677C158.095 6.33325 157.583 6.71888 157.433 7.27199" fill="white"/>
<path d="M99.3985 31.6666L96.6893 6.33325H87.0481L72.1676 31.6666H78.8647C79.3258 31.6666 79.751 31.4259 79.9802 31.0333L90.8685 12.4963L92.2689 25.5866H88.082C87.6209 25.5866 87.1956 25.8287 86.9665 26.2199L83.7676 31.6666H99.3999H99.3985Z" fill="white"/>
<path d="M21.8254 35.0388L20.0584 24.0709V24.0681L19.6833 21.7416C19.5931 21.1857 20.0312 20.6819 20.604 20.6819H25.9938C26.4162 20.6819 26.7856 20.4032 26.8944 20.0021L31.2446 4.04348C27.9598 1.51296 23.8273 0 19.331 0C18.2342 0 17.1616 0.0942963 16.1149 0.266L16.5445 2.92037C16.5473 2.93444 16.5531 2.9457 16.5545 2.95978L18.6981 16.2584C18.7883 16.8143 18.3501 17.3181 17.7774 17.3181H12.3876C11.9652 17.3181 11.5958 17.5968 11.4869 17.9979L7.18542 33.7764C10.5046 36.4153 14.7288 37.9986 19.331 37.9986C20.3391 37.9986 21.3285 37.9226 22.2951 37.7762L21.8784 35.226C21.8541 35.1669 21.8354 35.1036 21.8254 35.0388Z" fill="white"/>
<path d="M38.662 19C38.662 16.8931 38.3083 14.8692 37.6639 12.9749L32.1439 33.2218C36.1404 29.7413 38.662 24.662 38.662 19Z" fill="white"/>
<path d="M0 18.9999C0 20.9351 0.296408 22.8013 0.843404 24.5592L6.14439 5.11304C2.36554 8.58089 0 13.5167 0 18.9999Z" fill="white"/>
<path d="M181.627 7.67327C181.627 7.51564 181.567 7.39742 181.446 7.3186C181.342 7.25527 181.197 7.2229 181.012 7.2229C180.939 7.2229 180.868 7.22853 180.795 7.23557C180.739 7.2426 180.695 7.25105 180.662 7.25949V8.11238H181.058C181.234 8.11238 181.372 8.06875 181.468 7.98149C181.572 7.90268 181.624 7.79994 181.624 7.67327" fill="white"/>
<path d="M181.067 6.33325C179.999 6.33325 179.134 7.18333 179.134 8.23325C179.134 9.28318 179.999 10.1318 181.067 10.1318C182.135 10.1318 183 9.28318 183 8.23325C183 7.18333 182.135 6.33325 181.067 6.33325ZM181.678 9.48584C181.638 9.42955 181.581 9.23251 181.502 8.89755C181.423 8.55133 181.229 8.40777 180.915 8.38666H180.665V9.48584H180.38V7.03555C180.566 6.99755 180.77 6.97925 180.997 6.97925C181.329 6.97925 181.572 7.05103 181.73 7.19459C181.847 7.3114 181.906 7.45496 181.906 7.62807C181.906 7.96584 181.734 8.18118 181.393 8.27688V8.29236C181.588 8.35992 181.721 8.52881 181.79 8.79762C181.879 9.17058 181.946 9.40281 181.996 9.48725H181.681L181.678 9.48584Z" fill="white"/>
</g>
<defs>
<clipPath id="clip0_1_231">
<rect width="183" height="38" fill="white"/>
</clipPath>
</defs>
</svg>
